<svg width="1440" height="790" viewBox="0 0 1440 790" fill="none" xmlns="http://www.w3.org/2000/svg">
<path d="M401.43 183.779C395.396 178.477 388.517 174.483 379.856 175.002C368.386 175.679 356.759 179.786 345.256 181.207C324.708 183.746 306.81 180.395 289.646 172.52C286.15 171.877 282.62 171.188 278.977 170.579C262.219 167.747 244.4 173.411 227.596 174.46C222.048 174.81 216.352 174.607 210.905 175.126C222.217 181.67 235.942 186.532 247.039 192.817C269.628 205.6 294.01 220.786 312.156 238.646C317.648 244.061 308.919 249.342 303.382 246.171C277.139 231.177 255.294 210.79 228.013 196.833C216.183 190.786 202.853 183.689 189.782 180.44C204.015 196.991 211.683 217.976 225.713 234.043C248.967 260.647 287.977 270.541 322.486 278.823C356.195 286.912 391.889 295.385 426.658 298.273C458.055 300.88 487.873 292.294 516.958 282.58C506.989 270.462 492.553 262.553 478.501 254.43C463.175 245.585 448.785 235.949 436.289 223.855C423.455 211.421 414.884 195.592 401.43 183.779Z" fill="white"/>
<path d="M83.6805 118.725C89.714 123.136 96.1084 127.13 102.661 130.899C124.179 143.242 147.952 151.85 171.5 160.391C173.112 158.8 175.684 157.931 178.142 158.134C197.912 159.77 217.682 160.154 237.417 157.92C245.887 156.95 253.578 155.979 261.168 155.528C248.052 146.581 234.824 137.375 219.576 132.704C186.409 135.4 153.41 133.99 121.19 125.415C103.8 120.767 87.0976 114.212 71.3314 106.066C69.8879 105.321 68.4556 104.453 66.9219 103.922C70.8916 109.609 77.9627 114.528 83.6805 118.725Z" fill="white"/>
<path d="M452.979 121.771C456.531 124.784 452.494 129.5 448.434 128.969C430.074 126.51 413.067 119.334 394.391 117.326C376.178 115.374 357.784 115.679 339.548 117.157C322.553 118.499 305.693 120.903 288.866 123.441C273.213 125.788 254.481 126.228 239.673 131.034C247.331 137.318 258.146 141.459 266.717 146.976C291.054 162.591 315.944 160.041 344.375 157.672C361.641 156.239 375.761 157.548 392.598 160.978C402.252 162.963 411.872 161.576 421.785 162.749C452.257 166.348 480.846 175.069 511.95 174.223C526.554 173.84 541.193 172.113 555.391 168.988C567.785 166.269 586.134 162.93 596.228 155.438C619.234 138.379 543.933 114.675 532.949 111.087C504.732 101.903 472.489 99.3418 446.709 84.8552C434.281 77.8714 423.183 70.0527 409.289 65.4607C396.591 61.2862 382.866 59.2892 369.366 59.5939C339.187 60.2708 315.876 72.5348 292.216 88.5671C280.476 96.5325 267.845 103.336 254.661 109.135C248.165 111.978 241.534 114.562 234.835 116.988C233.583 117.428 232.061 117.8 231.147 118.42C274.612 113.253 317.004 102.896 361.077 102.196C390.061 101.734 430.424 102.772 452.979 121.771Z" fill="white"/>
<path d="M1333.61 95.077C1328.34 103.618 1323.43 112.35 1318.65 121.128C1312.35 132.591 1308.2 141.741 1305.71 154.422C1306.82 155.438 1303.46 167.623 1303.22 169.563C1302.69 174.02 1302.45 178.454 1302.44 182.922C1302.44 183.373 1302.44 183.836 1302.64 184.242C1302.9 184.772 1303.44 185.133 1303.95 185.494C1309.04 189.071 1312.78 195.423 1316.42 200.195C1320.4 205.408 1324.24 210.756 1327.73 216.261C1334.7 227.228 1340.41 238.939 1343.37 251.361C1349.29 276.081 1341.39 300.518 1338.03 324.979C1335.13 345.84 1339 366.306 1339.12 387.167C1339.26 409.134 1332.03 428.416 1316.72 445.441C1306.37 456.994 1287.02 480.699 1267.77 471.921C1250.33 463.967 1246.57 438.232 1241.89 423.023C1229.5 382.914 1223.9 341.18 1241.03 301.545C1249.58 281.756 1261.47 263.422 1271.5 244.264C1276.53 234.674 1281.1 224.859 1284.43 214.648C1286.14 209.424 1287.53 204.076 1288.5 198.672C1289.13 195.186 1288.38 187.074 1291.55 184.682C1292 184.355 1292.56 184.073 1292.8 183.587C1292.97 183.26 1292.98 182.888 1292.98 182.527C1293.02 177.044 1293.63 171.572 1293.54 166.111C1288.99 171.301 1285.79 177.879 1281.73 183.509C1263.14 209.289 1241.83 233.32 1220.9 257.544C1220.8 258.728 1220.76 259.766 1220.85 260.353C1221.51 264.347 1222.93 268.578 1222.93 272.448C1222.91 278.856 1221.41 285.231 1219.36 291.368C1215.33 303.429 1208.81 314.61 1203.49 326.22C1197.72 338.721 1199.46 350.5 1198.68 363.587C1198.02 374.971 1193.68 385.193 1187.73 395.121C1181.65 405.23 1174.06 414.606 1169.77 425.573C1166.03 435.095 1164.42 445.136 1161.57 454.839C1155.7 474.82 1143.31 488.258 1125.08 499.247C1163.33 531.244 1198.39 566.355 1232.6 602.673C1293.64 667.468 1354.02 734.914 1431.38 784.252C1434.23 786.057 1437.1 787.862 1440 789.634V0.462646H1428.49C1412.7 15.6149 1394.1 28.3415 1377.78 43.0763C1360.57 58.6348 1345.47 75.7615 1333.61 95.077Z" fill="white"/>
<path d="M92.7812 483.192C80.7367 470.386 72.2559 453.079 66.1322 439.292C60.1324 425.776 54.9898 411.944 48.4375 398.653C42.6183 386.874 34.4871 376.246 28.6227 364.546C17.8638 343.098 21.4952 321.041 26.6604 298.77C29.5023 286.528 32.0511 274.422 32.5924 261.91C33.1676 248.789 32.1864 235.678 32.9082 222.58C37.532 196.167 42.1897 178.048 64.948 159.917C71.1394 154.964 58.2265 132.016 55.5312 125.901C49.96 113.309 43.3513 101.09 35.7614 89.4019C27.9573 77.3861 19.0028 66.0135 9.20256 55.2952C6.67637 52.5423 3.31563 49.7329 0 46.8108V520.052C19.3525 515.674 38.0734 509.356 55.1477 501.695C67.9817 495.93 80.4886 489.713 92.7812 483.192Z" fill="white"/>
<path d="M665.325 104.306C667.502 104.453 671.562 104.487 673.4 105.818C675.148 107.115 675.464 107.352 675.317 107.747C675.17 108.108 670.152 125.224 669.159 132.625C659.382 128.687 651.126 119.131 642.634 113.343C630.782 105.558 661.333 104.024 665.325 104.306ZM662.055 219.849C660.036 227.025 657.859 234.178 655.446 241.252C650.123 236.265 644.811 231.256 639.691 226.1C636.026 222.399 628.797 217.119 626.981 212.301C623.361 202.711 649.615 206.243 655.096 206.886C656.968 207.111 663.938 207.495 664.987 209.029C665.866 210.349 662.517 218.213 662.055 219.849ZM685.14 166.032C686.775 163.054 693.97 162.219 697.015 161.824C702.462 161.057 707.876 160.944 713.379 161.282C717.428 161.542 726.281 161.26 729.698 163.606C723.687 174.133 717.947 184.795 711.789 195.265C705.214 188.992 698.064 183.249 691.647 176.852C689.177 174.381 683.042 169.846 685.14 166.032ZM702.113 75.2989C705.62 71.8803 721.837 74.6671 727.318 74.385C724.296 80.9514 721.555 87.6306 719.097 94.3775C715.567 93.1251 712.499 90.643 709.849 88.2173C707.267 85.8592 698.03 79.259 702.113 75.2989ZM748.272 228.514C745.385 239.797 741.844 250.898 739.363 262.26C739.295 262.553 723.597 250.695 721.307 248.484C717.947 245.212 706.849 235.599 708.417 230.556C710.007 225.445 725.469 226.799 730.149 226.788C736.126 226.788 742.464 227.183 748.272 228.514ZM752.93 119.515C759.696 118.206 769.756 115.013 776.602 117.54C772.779 126.081 769.339 134.757 766.339 143.569C760.384 138.526 753.967 133.956 747.923 129.003C740.479 122.899 745.554 120.959 752.93 119.515ZM820.573 184.727C816.919 191.53 813.31 198.345 809.848 205.238C808.393 208.149 807.085 213.283 804.773 215.607C802.044 218.382 803.217 218.958 798.57 215.765C792.232 211.399 786.47 204.595 781.169 199.214C779.128 197.126 766.034 184.501 776.737 184.366C791.274 182.708 806.048 183.023 820.573 184.727ZM849.376 264.471C852.996 260.692 869.958 262.384 874.458 262.813C879.443 263.309 878.901 263.275 878.371 266.671C878.055 268.725 876.465 271.274 875.676 273.271C873.939 277.626 872.45 282.038 870.533 286.325C866.71 286.269 861.387 279.465 858.534 277.062C855.692 274.659 845.576 268.465 849.376 264.471ZM857.767 203.084C861.094 201.617 868.03 201.741 871.537 201.47C876.24 201.109 882.273 200.455 886.593 202.768C889.006 204.043 882.442 211.196 880.988 213.587C878.518 217.593 876.364 221.812 874.864 226.201C869.293 224.294 848.192 207.326 857.767 203.084ZM17.5142 49.9135C27.1791 59.4922 33.7991 70.5716 44.8963 79.0108C56.2304 87.6419 68.7711 94.8852 81.966 100.887C99.0854 108.672 117.321 114.55 136.054 118.093C148.391 120.429 161.124 121.252 173.676 121.85C195.205 122.843 211.422 111.707 231.733 105.874C241.545 103.042 251.21 98.4843 260.108 93.8021C277.915 84.4715 292.903 71.2824 310.857 62.1549C337.066 48.8304 368.666 44.8477 397.932 50.8161C429.521 57.2696 452.008 79.0898 482.965 86.4008C516.663 94.3775 549.289 103.302 580.664 117.371C593.509 123.125 616.357 135.254 614.621 150.485C618.207 150.316 621.399 150.372 622.876 150.429C624.534 150.485 626.248 150.632 627.816 151.151C625.143 157.728 622.357 164.272 619.459 170.782C617.406 169.563 611.452 166.788 606.399 163.708C597.467 170.579 582.964 173.783 573.063 176.525C559.349 180.361 545.184 183.023 530.918 184.411C498.822 187.514 468.959 182.358 437.674 176.513C429.182 174.945 420.747 173.715 412.288 173.208C426.735 185.652 437.268 202.869 451.726 216.521C478.206 241.511 518.986 252.106 537.718 283.843C539.895 287.532 537.673 292.147 533.489 293.535C501.551 304.084 468.722 314.317 434.291 312.997C398.597 311.632 361.787 302.075 327.401 293.738C292.599 285.287 254.57 274.738 227.211 252.309C215.166 242.437 207.17 230.737 200.494 217.367C196.209 208.792 192.453 199.676 186.521 191.914C172.289 173.275 152.26 166.574 130.798 157.232C118.483 151.873 106.044 146.051 94.8563 138.853C85.9921 133.166 78.6165 125.088 68.6809 120.812C68.523 130.628 76.7783 140.929 79.9134 150.316C86.353 169.654 94.6646 182.189 107.521 198.661C120.772 215.652 133.595 232.903 146.113 250.334C163.74 274.896 166.864 297.664 161.09 326.152C156.342 349.608 153.805 371.857 154.673 395.753C155.316 413.162 156.331 430.729 154.256 448.036C198.972 421.319 243.338 394.129 293.512 374.791C374.012 343.787 462.203 325.441 547.88 320.432C595.156 317.679 642.815 318.751 690.079 323.546C685.862 319.383 681.565 315.298 677.392 311.101C670.806 304.479 672.689 301.173 682.196 300.688C690.147 300.304 698.132 300.451 706.071 300.913C708.293 301.037 710.503 301.229 712.736 301.365C710.492 309.307 708.665 317.352 706.906 325.407C734.581 328.736 762.065 333.373 789.233 339.274C782.263 331.173 774.605 323.591 767.546 315.592C763.204 310.684 761.873 307.547 770.162 307.401C775.857 307.288 781.88 308.236 787.507 309.003C793.067 309.77 798.593 310.774 804.063 311.97C800.093 321.233 796.619 330.676 793.597 340.233C814.303 344.836 834.794 350.184 855.026 356.265C856.662 356.333 858.286 356.445 859.898 356.57C859.718 356.908 859.549 357.235 859.368 357.574C921.452 376.573 980.93 402.5 1035.68 435.185C1042.17 439.067 1048.53 443.083 1054.81 447.145C1066.88 412.496 1077.22 377.34 1095.57 344.858C1107.6 323.557 1123.22 303.508 1143.93 288.525C1156.9 279.116 1171.68 272.256 1186.12 265.047C1193.18 261.538 1200.21 257.95 1206.93 253.877C1215.39 248.777 1221.04 242.662 1227.38 235.52C1233.03 229.146 1238.62 222.738 1244.09 216.228C1249.76 209.515 1255.26 202.689 1260.55 195.739C1263.19 192.264 1265.78 188.755 1268.31 185.201C1269.65 183.294 1272.58 176.739 1274.7 175.87C1267.97 178.601 1261.34 185.731 1254.9 189.725C1245.28 195.727 1234.86 200.522 1224.1 204.573C1218.71 206.592 1213.25 208.42 1207.72 210.158C1203.87 211.354 1196.76 212.155 1193.58 214.546C1192.95 215.02 1192.54 215.709 1192.13 216.352C1186.69 224.813 1177.4 229.924 1169.14 235.803C1155.78 245.347 1141.34 253.55 1127.11 261.921C1103 276.081 1079.06 290.567 1054.67 304.332C1012.35 328.239 966.495 339.161 916.738 335.37C910.964 334.941 909.96 329.424 912.136 325.464C926.222 299.751 945.868 277.412 966.822 256.133C985.982 236.694 1005.28 215.314 1029.95 201.504C1052.07 189.138 1077.55 186.442 1102.98 188.676C1132.33 191.282 1161.14 197.375 1190.01 202.598C1198.26 204.099 1209.65 198.717 1217.38 196.167C1226.72 193.053 1235.84 189.421 1244.49 184.93C1263.41 175.103 1278.75 160.413 1292.61 145.284C1301.95 135.096 1307.03 121.952 1313.53 110.162C1320.57 97.3786 1330.09 85.4756 1336.88 72.7265C1326.27 76.3482 1316.02 82.294 1305.59 86.57C1295.7 90.6091 1285.52 94.0841 1275.07 96.7242C1270.57 97.875 1265.22 98.1458 1260.94 99.6012C1256.36 101.181 1253.42 105.547 1249.6 108.108C1244.87 111.29 1239.83 113.93 1234.47 116.141C1223.85 120.485 1212.49 123.103 1201.24 125.686C1173.42 132.106 1148.65 142.204 1123.56 154.772C1102.27 165.434 1081.1 176.739 1058.02 183.87C1040.34 189.342 1015.94 195.987 998.839 185.551C979.419 173.682 995.783 156.882 1000.42 142.204C1006.77 122.076 1009.32 103.663 1026.66 88.3639C1057.19 61.4667 1105.32 51.651 1146.53 52.17C1188.9 52.6889 1228.45 65.7201 1263.2 87.4275C1263.73 87.7547 1264.27 88.0932 1264.89 88.2173C1269.86 89.2327 1278.98 85.408 1283.74 84.0766C1290.45 82.215 1297.03 79.9811 1303.48 77.4426C1318.98 71.3613 1333.75 62.9672 1348.6 55.7352C1362.43 48.9883 1370.61 35.7202 1381.87 26.2542C1392.99 16.8673 1404.86 8.15725 1417.47 0.462646H0V33.5991C6.72148 38.1008 12.6761 45.1523 17.5142 49.9135Z" fill="#027467"/>
<path d="M56.4006 204.246C52.9158 217.48 52.9045 231.256 53.0286 244.783C53.2654 268.499 49.1265 289.857 44.4801 313.02C42.4614 323.083 40.781 333.542 42.405 343.753C44.0515 354.087 49.6227 362.752 55.2503 371.643C67.9715 391.782 75.7643 413.478 85.2375 434.937C90.0869 445.904 95.3761 456.983 102.481 466.889C104.387 469.552 106.451 472.102 108.65 474.561C117.616 469.574 126.491 464.452 135.322 459.262C138.682 445.836 138.908 431.395 138.851 418.126C138.773 398.461 137.273 378.615 139.878 359.04C142.562 338.676 151.054 319.089 151.607 298.465C152.306 272.786 134.216 252.365 119.24 232.147C111.684 221.948 103.947 211.839 96.346 201.673C94.1469 198.74 91.9928 195.761 89.8163 192.794C91.4515 204.539 92.2635 216.374 92.1282 228.243C91.9816 241.308 91.0342 254.385 91.632 267.45C92.2297 280.571 97.4061 293.275 97.3836 306.295C97.3836 310.639 90.9215 310.447 88.4968 308.157C71.2307 291.741 75.2568 260.207 75.8884 239.311C76.5199 218.202 75.6177 197.409 71.6592 176.75C68.7045 179.323 65.9753 183.712 64.6558 185.63C60.7312 191.316 58.1261 197.702 56.4006 204.246Z" fill="white"/>
<path d="M655.098 206.886C649.617 206.243 623.363 202.711 626.983 212.301C628.799 217.119 636.028 222.399 639.693 226.1C644.813 231.256 650.125 236.265 655.448 241.252C657.861 234.178 660.038 227.025 662.056 219.849C662.519 218.213 665.868 210.349 664.989 209.029C663.94 207.495 656.97 207.111 655.098 206.886Z" fill="white"/>
<path d="M708.418 230.556C706.851 235.6 717.948 245.212 721.309 248.484C723.598 250.695 739.297 262.553 739.364 262.26C741.845 250.898 745.386 239.797 748.274 228.514C742.466 227.183 736.128 226.788 730.15 226.788C725.47 226.799 710.008 225.445 708.418 230.556Z" fill="white"/>
<path d="M706.07 300.913C698.13 300.451 690.145 300.304 682.195 300.688C672.688 301.173 670.804 304.479 677.39 311.102C681.563 315.299 685.86 319.383 690.078 323.546C694.938 328.341 699.72 333.204 704.118 338.382C705.043 334.061 705.968 329.729 706.904 325.408C708.663 317.352 710.49 309.308 712.735 301.365C710.502 301.229 708.291 301.038 706.07 300.913Z" fill="white"/>
<path d="M691.648 176.852C698.065 183.249 705.215 188.992 711.79 195.265C717.947 184.795 723.688 174.133 729.699 163.606C726.281 161.26 717.429 161.542 713.38 161.282C707.876 160.944 702.463 161.057 697.016 161.824C693.971 162.219 686.776 163.054 685.141 166.032C683.043 169.846 689.178 174.381 691.648 176.852Z" fill="white"/>
<path d="M781.171 199.214C786.472 204.595 792.235 211.399 798.573 215.765C803.219 218.958 802.046 218.383 804.775 215.607C807.087 213.283 808.395 208.149 809.85 205.239C813.312 198.345 816.921 191.53 820.575 184.727C806.05 183.023 791.276 182.708 776.739 184.366C766.037 184.501 779.13 197.126 781.171 199.214Z" fill="white"/>
<path d="M787.508 309.003C781.88 308.236 775.858 307.288 770.163 307.401C761.874 307.547 763.204 310.684 767.546 315.592C774.606 323.591 782.264 331.173 789.233 339.274C790.384 340.605 791.523 341.948 792.628 343.324C792.932 342.286 793.282 341.271 793.598 340.233C796.62 330.676 800.094 321.233 804.063 311.97C798.594 310.774 793.068 309.77 787.508 309.003Z" fill="white"/>
<path d="M858.535 277.062C861.388 279.466 866.711 286.269 870.534 286.325C872.451 282.038 873.94 277.627 875.677 273.272C876.466 271.275 878.056 268.725 878.372 266.671C878.902 263.275 879.443 263.309 874.459 262.813C869.959 262.384 852.997 260.692 849.377 264.471C845.577 268.465 855.693 274.659 858.535 277.062Z" fill="white"/>
<path d="M874.863 226.201C876.363 221.812 878.517 217.593 880.986 213.587C882.441 211.196 889.005 204.043 886.591 202.768C882.272 200.455 876.239 201.109 871.536 201.47C868.028 201.741 861.093 201.617 857.766 203.084C848.191 207.326 869.292 224.294 874.863 226.201Z" fill="white"/>
<path d="M747.922 129.003C753.967 133.956 760.384 138.526 766.338 143.569C769.338 134.757 772.778 126.081 776.601 117.54C769.756 115.013 759.696 118.206 752.929 119.515C745.554 120.959 740.479 122.9 747.922 129.003Z" fill="white"/>
<path d="M642.635 113.343C651.127 119.131 659.382 128.687 669.16 132.625C670.153 125.224 675.171 108.108 675.318 107.747C675.464 107.352 675.149 107.115 673.401 105.818C671.562 104.486 667.502 104.453 665.326 104.306C661.333 104.024 630.782 105.558 642.635 113.343Z" fill="white"/>
<path d="M709.85 88.2175C712.5 90.6432 715.568 93.1253 719.098 94.3777C721.556 87.6308 724.297 80.9516 727.319 74.3852C721.838 74.6673 705.621 71.8805 702.114 75.2991C698.031 79.2592 707.268 85.8594 709.85 88.2175Z" fill="white"/>
<path d="M627.817 151.151C626.249 150.632 624.535 150.485 622.877 150.429C621.4 150.372 618.208 150.316 614.622 150.485C614.317 153.114 613.314 155.822 611.385 158.597C610.054 160.504 608.363 162.185 606.4 163.708C611.453 166.788 617.407 169.564 619.46 170.782C622.358 164.272 625.144 157.728 627.817 151.151Z" fill="white"/>
<path d="M855.027 356.265C849.061 355.983 843.05 356.197 837.186 357.1C830.182 358.183 824.814 361.274 832.145 366.239C837.795 370.052 843.783 373.504 849.659 377.058C852.49 370.402 855.862 363.937 859.369 357.574C859.55 357.235 859.719 356.908 859.899 356.57C858.286 356.445 856.662 356.333 855.027 356.265Z" fill="white"/>
<path d="M71.3312 106.066C87.0973 114.212 103.8 120.767 121.19 125.415C153.41 133.99 186.408 135.4 219.576 132.704C234.823 137.375 248.052 146.581 261.168 155.528C253.578 155.979 245.887 156.95 237.417 157.92C217.681 160.154 197.912 159.77 178.142 158.134C175.683 157.931 173.112 158.8 171.499 160.391C147.952 151.85 124.178 143.242 102.66 130.899C96.1082 127.13 89.7137 123.136 83.6802 118.725C77.9624 114.528 70.8913 109.609 66.9216 103.922C68.4554 104.453 69.8876 105.321 71.3312 106.066ZM234.835 116.987C241.534 114.562 248.165 111.978 254.661 109.135C267.844 103.336 280.475 96.5324 292.215 88.5671C315.876 72.5347 339.187 60.2708 369.366 59.5938C382.865 59.2892 396.59 61.2862 409.289 65.4607C423.183 70.0526 434.28 77.8713 446.708 84.8551C472.489 99.3418 504.731 101.903 532.948 111.087C543.932 114.675 619.233 138.379 596.227 155.438C586.133 162.929 567.785 166.269 555.391 168.988C541.192 172.113 526.554 173.84 511.949 174.223C480.845 175.069 452.256 166.348 421.784 162.749C411.871 161.576 402.251 162.963 392.598 160.978C375.76 157.548 361.641 156.239 344.374 157.672C315.943 160.041 291.054 162.591 266.716 146.976C258.145 141.459 247.33 137.318 239.673 131.034C254.48 126.228 273.212 125.788 288.866 123.441C305.692 120.902 322.552 118.499 339.548 117.157C357.784 115.679 376.177 115.374 394.391 117.326C413.067 119.334 430.073 126.51 448.433 128.969C452.493 129.5 456.531 124.784 452.978 121.771C430.423 102.772 390.06 101.734 361.077 102.196C317.004 102.896 274.611 113.253 231.147 118.42C232.06 117.8 233.583 117.427 234.835 116.987ZM436.287 223.855C448.783 235.949 463.173 245.584 478.5 254.43C492.552 262.553 506.987 270.462 516.956 282.579C487.871 292.294 458.053 300.88 426.656 298.273C391.887 295.385 356.193 286.912 322.484 278.822C287.975 270.541 248.965 260.646 225.711 234.043C211.682 217.976 204.013 196.991 189.78 180.44C202.851 183.689 216.181 190.786 228.012 196.833C255.292 210.789 277.137 231.177 303.38 246.171C308.917 249.341 317.646 244.061 312.154 238.646C294.008 220.786 269.626 205.6 247.037 192.817C235.94 186.532 222.215 181.67 210.903 175.126C216.35 174.607 222.046 174.81 227.594 174.46C244.398 173.411 262.217 167.747 278.975 170.579C282.618 171.188 286.148 171.876 289.644 172.52C306.809 180.395 324.706 183.746 345.254 181.207C356.757 179.785 368.385 175.679 379.854 175.002C388.515 174.483 395.395 178.477 401.428 183.779C414.882 195.592 423.453 211.421 436.287 223.855ZM71.6582 176.75C75.6167 197.409 76.5189 218.202 75.8873 239.311C75.2558 260.206 71.2297 291.741 88.4957 308.157C90.9204 310.447 97.3825 310.639 97.3825 306.295C97.4051 293.275 92.2286 280.571 91.6309 267.45C91.0332 254.385 91.9805 241.308 92.1272 228.243C92.2625 216.374 91.4505 204.539 89.8152 192.794C91.9918 195.761 94.1459 198.74 96.345 201.673C103.946 211.839 111.683 221.948 119.239 232.147C134.215 252.365 152.305 272.786 151.605 298.465C151.053 319.089 142.561 338.676 139.877 359.04C137.272 378.615 138.772 398.461 138.85 418.126C138.907 431.395 138.681 445.836 135.321 459.262C133.832 465.219 131.712 470.996 128.723 476.366C124.629 483.756 120.017 485.686 113.419 479.503C111.739 477.912 110.171 476.265 108.649 474.561C106.45 472.102 104.386 469.552 102.48 466.889C95.3751 456.983 90.0859 445.904 85.2365 434.937C75.7633 413.478 67.9704 391.782 55.2492 371.643C49.6217 362.752 44.0505 354.087 42.404 343.753C40.78 333.542 42.4604 323.083 44.4791 313.019C49.1255 289.857 53.2644 268.499 53.0275 244.783C52.9035 231.256 52.9147 217.48 56.3995 204.246C58.125 197.702 60.7302 191.316 64.6548 185.63C65.9743 183.712 68.7035 179.323 71.6582 176.75ZM9.20257 55.2952C19.0028 66.0135 27.9573 77.3862 35.7614 89.402C43.3513 101.091 49.96 113.309 55.5312 125.901C58.2265 132.016 71.1394 154.964 64.948 159.917C42.1897 178.048 37.532 196.167 32.9082 222.58C32.1864 235.678 33.1676 248.789 32.5924 261.91C32.0511 274.422 29.5023 286.528 26.6604 298.77C21.4952 321.041 17.8638 343.098 28.6227 364.546C34.4871 376.246 42.6183 386.874 48.4375 398.653C54.9898 411.944 60.1324 425.776 66.1322 439.292C72.2559 453.079 80.7367 470.387 92.7812 483.192C98.4088 489.206 104.826 494.215 112.156 497.431C134.813 507.37 146.474 481.771 150.771 466.144C152.417 460.165 153.523 454.117 154.256 448.036C156.331 430.729 155.316 413.162 154.673 395.753C153.805 371.857 156.342 349.608 161.09 326.152C166.864 297.664 163.74 274.896 146.113 250.334C133.595 232.903 120.772 215.652 107.521 198.661C94.6646 182.189 86.353 169.654 79.9135 150.316C76.7783 140.929 68.523 130.628 68.6809 120.812C78.6165 125.088 85.9921 133.166 94.8563 138.853C106.044 146.051 118.483 151.873 130.798 157.232C152.26 166.574 172.289 173.275 186.521 191.914C192.453 199.676 196.209 208.792 200.494 217.367C207.17 230.737 215.166 242.437 227.211 252.309C254.57 274.738 292.599 285.287 327.402 293.738C361.787 302.076 398.597 311.632 434.291 312.997C468.722 314.317 501.551 304.084 533.489 293.535C537.673 292.147 539.895 287.532 537.719 283.843C518.986 252.106 478.206 241.511 451.726 216.521C437.268 202.869 426.735 185.652 412.288 173.208C420.747 173.715 429.182 174.945 437.674 176.513C468.959 182.358 498.822 187.514 530.918 184.411C545.184 183.023 559.349 180.361 573.063 176.525C582.964 173.783 597.468 170.579 606.399 163.708C608.362 162.185 610.053 160.504 611.384 158.597C613.313 155.822 614.316 153.114 614.621 150.485C616.358 135.254 593.509 123.125 580.664 117.371C549.289 103.302 516.663 94.3775 482.966 86.4008C452.008 79.0898 429.521 57.2696 397.932 50.8161C368.666 44.8477 337.066 48.8304 310.857 62.1549C292.903 71.2824 277.915 84.4715 260.108 93.8021C251.21 98.4843 241.545 103.042 231.733 105.874C211.422 111.707 195.205 122.843 173.676 121.85C161.124 121.252 148.391 120.429 136.054 118.093C117.321 114.55 99.0855 108.672 81.966 100.887C68.7711 94.8852 56.2304 87.6419 44.8963 79.0108C33.7991 70.5716 27.1791 59.4923 17.5142 49.9135C12.6761 45.1523 6.72148 38.1008 0 33.5991V46.8108C3.31563 49.733 6.67637 52.5423 9.20257 55.2952Z" fill="#2D8D80"/>
<path d="M1348.6 55.7352C1333.75 62.9672 1318.98 71.3614 1303.48 77.4426C1297.03 79.9811 1290.45 82.215 1283.74 84.0766C1278.98 85.408 1269.86 89.2327 1264.89 88.2173C1264.27 88.0932 1263.73 87.7547 1263.2 87.4275C1228.45 65.7201 1188.9 52.689 1146.53 52.17C1105.32 51.651 1057.19 61.4667 1026.66 88.364C1009.32 103.663 1006.77 122.076 1000.42 142.204C995.783 156.882 979.419 173.682 998.839 185.551C1015.94 195.987 1040.34 189.342 1058.02 183.87C1081.1 176.739 1102.27 165.434 1123.56 154.772C1148.65 142.204 1173.42 132.106 1201.24 125.686C1212.49 123.103 1223.85 120.485 1234.47 116.141C1239.83 113.93 1244.87 111.29 1249.6 108.108C1253.42 105.547 1256.36 101.181 1260.94 99.6012C1265.22 98.1458 1270.57 97.875 1275.07 96.7242C1285.52 94.0841 1295.7 90.6092 1305.59 86.5701C1316.02 82.294 1326.27 76.3482 1336.88 72.7265C1330.09 85.4757 1320.57 97.3786 1313.53 110.162C1307.04 121.952 1301.95 135.096 1292.61 145.284C1278.75 160.413 1263.41 175.103 1244.49 184.93C1235.84 189.421 1226.72 193.054 1217.38 196.167C1209.65 198.717 1198.26 204.099 1190.01 202.598C1161.14 197.375 1132.33 191.282 1102.98 188.676C1077.55 186.442 1052.07 189.139 1029.95 201.504C1005.28 215.314 985.983 236.694 966.822 256.133C945.868 277.412 926.222 299.751 912.137 325.464C909.96 329.424 910.964 334.941 916.738 335.37C966.495 339.161 1012.35 328.239 1054.67 304.332C1079.06 290.567 1103 276.081 1127.11 261.921C1141.34 253.55 1155.78 245.348 1169.14 235.803C1177.4 229.924 1186.69 224.814 1192.13 216.352C1192.54 215.709 1192.95 215.02 1193.58 214.547C1196.76 212.155 1203.87 211.354 1207.72 210.158C1213.25 208.42 1218.71 206.592 1224.1 204.573C1234.86 200.522 1245.28 195.727 1254.9 189.725C1261.34 185.731 1267.97 178.601 1274.7 175.87C1272.58 176.739 1269.65 183.294 1268.31 185.201C1265.78 188.755 1263.19 192.264 1260.55 195.739C1255.26 202.689 1249.76 209.515 1244.09 216.228C1238.62 222.738 1233.03 229.146 1227.38 235.521C1221.04 242.662 1215.39 248.777 1206.93 253.877C1200.21 257.95 1193.18 261.538 1186.12 265.047C1171.68 272.256 1156.9 279.116 1143.93 288.525C1123.22 303.508 1107.6 323.557 1095.57 344.858C1077.22 377.341 1066.88 412.497 1054.81 447.145C1050.55 459.375 1046.07 471.56 1040.94 483.542C1035.18 497.036 1029.57 520.887 1051.18 525.806C1061.2 528.085 1072.36 522.85 1081.41 519.555C1095.06 514.591 1108.28 508.736 1120.83 501.729C1122.28 500.917 1123.69 500.093 1125.08 499.247C1143.31 488.258 1155.7 474.821 1161.56 454.839C1164.42 445.137 1166.03 435.095 1169.76 425.573C1174.06 414.606 1181.65 405.231 1187.73 395.122C1193.68 385.193 1198.01 374.971 1198.68 363.587C1199.46 350.5 1197.72 338.721 1203.48 326.22C1208.81 314.61 1215.33 303.429 1219.36 291.368C1221.4 285.231 1222.9 278.856 1222.93 272.448C1222.93 268.578 1221.51 264.347 1220.85 260.353C1220.76 259.766 1220.79 258.728 1220.9 257.544C1241.83 233.32 1263.14 209.289 1281.73 183.509C1285.79 177.879 1288.99 171.301 1293.54 166.111C1293.63 171.572 1293.02 177.044 1292.98 182.527C1292.98 182.888 1292.97 183.26 1292.8 183.588C1292.55 184.073 1292 184.355 1291.55 184.682C1288.38 187.074 1289.13 195.186 1288.49 198.672C1287.52 204.076 1286.14 209.424 1284.42 214.648C1281.1 224.859 1276.53 234.674 1271.5 244.264C1261.47 263.422 1249.58 281.756 1241.03 301.545C1223.9 341.18 1229.5 382.914 1241.88 423.023C1246.56 438.232 1250.33 463.967 1267.77 471.921C1287.02 480.699 1306.37 456.994 1316.72 445.441C1332.03 428.416 1339.26 409.134 1339.12 387.167C1339 366.306 1335.13 345.84 1338.03 324.979C1341.39 300.519 1349.29 276.081 1343.37 251.361C1340.41 238.939 1334.7 227.228 1327.73 216.261C1324.23 210.756 1320.4 205.408 1316.42 200.195C1312.78 195.423 1309.04 189.071 1303.94 185.494C1303.44 185.133 1302.9 184.772 1302.64 184.242C1302.43 183.836 1302.43 183.373 1302.43 182.922C1302.45 178.454 1302.69 174.02 1303.22 169.564C1303.46 167.623 1306.82 155.438 1305.7 154.423C1308.2 141.741 1312.35 132.591 1318.65 121.128C1323.43 112.35 1328.34 103.618 1333.61 95.077C1345.47 75.7615 1360.57 58.6348 1377.78 43.0763C1394.1 28.3415 1412.7 15.6149 1428.48 0.462646H1417.47C1404.86 8.15725 1392.99 16.8673 1381.87 26.2543C1370.61 35.7202 1362.43 48.9883 1348.6 55.7352Z" fill="#287C71"/>
</svg>
