<svg width="403" height="511" viewBox="0 0 403 511" fill="none" xmlns="http://www.w3.org/2000/svg">
<path d="M67.1682 90.5515C67.1301 90.7761 67.0619 90.9944 66.9653 91.2007C66.8166 91.62 66.5461 92.2151 66.2891 93.0131C63.7611 99.8177 63.0341 107.16 64.1786 114.328C65.3232 121.497 68.3004 128.247 72.8217 133.926C75.001 136.67 77.5032 139.14 80.274 141.284C82.1382 142.735 84.1197 144.029 86.198 145.152C86.9284 145.572 87.5505 145.842 87.9157 146.058C88.2809 146.275 88.5108 146.37 88.4973 146.397C88.2793 146.332 88.0667 146.251 87.8616 146.153C87.4694 145.964 86.8472 145.734 86.1033 145.342C83.9533 144.286 81.9066 143.032 79.99 141.595C73.6444 136.843 68.7612 130.404 65.8968 123.012C63.1072 115.595 62.4558 107.544 64.0169 99.7756C64.4801 97.4381 65.1546 95.1475 66.0321 92.9319C66.3296 92.1475 66.6272 91.5794 66.803 91.1601C66.9076 90.9474 67.0297 90.7438 67.1682 90.5515Z" fill="#263238"/>
<path d="M65.1939 93.9868C67.1096 96.0718 69.5573 97.5952 72.2739 98.3935C74.9905 99.1918 77.8733 99.2348 80.6124 98.5177C81.6944 98.2337 82.9117 97.6116 83.0334 96.489C83.1552 95.3664 81.9785 94.4196 80.8965 93.9327C78.6053 92.9008 76.1266 92.3503 73.614 92.3154C71.1013 92.2805 68.6083 92.7619 66.2894 93.7299C70.2816 92.5662 73.8396 90.246 76.5143 87.062C77.5287 85.8583 78.4214 84.1406 77.6234 82.7881C76.8254 81.4355 74.986 81.4356 73.5659 81.7602C71.0164 82.4392 68.7511 83.9161 67.1012 85.9749C65.4513 88.0336 64.5033 90.5662 64.3959 93.2024C64.8064 90.8671 64.4925 88.4621 63.4964 86.3103C62.5004 84.1586 60.8697 82.3631 58.8235 81.1651C57.2546 80.2859 54.9013 79.9613 53.9139 81.4761C53.6646 81.971 53.5269 82.5145 53.5105 83.0683C53.4942 83.6222 53.5996 84.1729 53.8192 84.6816C54.466 86.7176 55.5438 88.5906 56.9791 90.1729C58.4144 91.7552 60.1736 93.0099 62.1372 93.8516C59.9373 92.593 57.4163 92.008 54.887 92.1691C52.3576 92.3302 49.9312 93.2303 47.9088 94.7578C47.2213 95.1811 46.6595 95.7805 46.2814 96.4939C45.9033 97.2073 45.7227 98.0087 45.7583 98.8153C46.1235 100.817 48.4633 101.723 50.5462 101.872C53.0827 102.048 55.6264 101.654 57.9904 100.717C60.3544 99.7812 62.4785 98.3271 64.2065 96.4619C63.227 97.6879 62.5602 99.1336 62.2633 100.674C61.9665 102.215 62.0485 103.805 62.5024 105.307C63.1245 107.268 64.991 109.243 66.9521 108.594C68.9132 107.945 69.2243 105.524 69.0755 103.563C68.7849 99.9972 67.7038 96.5413 65.9107 93.4458" fill="#00B09C"/>
<path d="M69.6689 130.761C73.6133 128.216 76.9535 124.84 79.4557 120.868C81.9579 116.896 83.5615 112.425 84.1543 107.769C82.0985 107.769 80.3267 109.121 78.9201 110.663C73.8359 116.083 70.7124 123.049 70.0476 130.45" fill="#455A64"/>
<path d="M76.149 96.0968C74.2012 95.4473 72.219 94.9054 70.2115 94.4738C68.169 94.2366 66.1139 94.1237 64.0576 94.1357C68.1902 93.2052 72.5224 93.9079 76.149 96.0968Z" fill="#263238"/>
<path d="M72.592 87.8329C71.0885 88.5567 69.6651 89.4361 68.3451 90.4567C66.2487 92.2691 65.0179 94.2167 64.8691 94.1085C65.5596 92.5188 66.633 91.1248 67.9934 90.051C69.2505 88.8401 70.8618 88.0629 72.592 87.8329Z" fill="#263238"/>
<path d="M58.8779 86.7915C60.443 87.3678 61.8157 88.3703 62.8408 89.6859C64.0097 90.8891 64.751 92.443 64.9507 94.1086C64.2465 92.6743 63.3991 91.3149 62.4215 90.0511C61.2988 88.9026 60.116 87.8145 58.8779 86.7915Z" fill="#263238"/>
<path d="M62.5557 93.7836C62.5802 93.411 62.7084 93.0527 62.9259 92.7491C63.1434 92.4456 63.4415 92.2089 63.7865 92.0659C64.1386 91.9407 64.5192 91.9188 64.8835 92.0026C65.2477 92.0865 65.5803 92.2727 65.8423 92.5393C65.4353 92.9616 65.0975 93.4454 64.8414 93.973C64.0921 93.8032 63.3227 93.7395 62.5557 93.7836Z" fill="#FAFAFA"/>
<path d="M50.9102 98.166C51.4273 97.6205 52.0304 97.1636 52.6955 96.8135C54.2327 95.9055 55.89 95.218 57.6186 94.7712C59.3479 94.3135 61.1318 94.0951 62.9204 94.122C63.6617 94.0892 64.4031 94.1853 65.1115 94.406C60.1277 94.3325 55.2181 95.6183 50.9102 98.1254V98.166Z" fill="#263238"/>
<path d="M102.09 96.421L101.779 96.7186C101.563 96.9215 101.238 97.1649 100.846 97.5436C98.0679 100.084 95.828 103.156 94.259 106.578C93.1046 109.07 92.3427 111.725 92.0004 114.45C91.4096 119.425 92.1907 124.467 94.259 129.03C94.8805 130.408 95.6133 131.734 96.4501 132.993C96.7342 133.453 96.9911 133.777 97.1534 134.021L97.3833 134.386C97.3833 134.386 97.2752 134.278 97.0858 134.061C96.8965 133.845 96.6395 133.52 96.3419 133.074C95.4541 131.837 94.6843 130.519 94.0427 129.138C91.884 124.544 91.0547 119.437 91.6487 114.396C92.0087 111.642 92.7887 108.96 93.9615 106.443C94.9093 104.385 96.1185 102.457 97.5592 100.708C98.5204 99.5174 99.5938 98.4213 100.765 97.4354C101.157 97.0837 101.509 96.8403 101.725 96.6645C101.837 96.5695 101.959 96.4878 102.09 96.421Z" fill="#263238"/>
<path d="M99.9391 97.7737C100.395 99.5289 101.321 101.126 102.618 102.394C103.914 103.662 105.532 104.552 107.297 104.969C107.631 105.099 107.996 105.129 108.347 105.055C108.698 104.98 109.019 104.805 109.271 104.55C109.704 103.928 109.271 103.062 108.825 102.467C107.843 101.195 106.61 100.139 105.202 99.364C103.794 98.5892 102.242 98.1123 100.642 97.9631C103.246 98.5026 105.951 98.2627 108.419 97.2733C109.353 96.8946 110.367 96.1913 110.326 95.1769C110.286 94.1625 109.244 93.608 108.311 93.3645C106.666 92.9797 104.941 93.1335 103.39 93.8031C101.839 94.4727 100.544 95.6228 99.6957 97.0839C100.625 95.8846 101.167 94.4306 101.249 92.9156C101.331 91.4006 100.95 89.8965 100.156 88.6037C99.5333 87.6299 98.3026 86.7508 97.2882 87.2512C96.9973 87.4549 96.7553 87.7208 96.5799 88.0296C96.4044 88.3383 96.2999 88.6823 96.2738 89.0365C96.0241 90.3817 96.0688 91.765 96.4051 93.0912C96.7413 94.4174 97.361 95.655 98.2214 96.7188C97.3555 95.3456 96.1062 94.2564 94.6278 93.5857C93.1495 92.9151 91.507 92.6924 89.9035 92.9453C89.387 92.9831 88.8897 93.1569 88.4621 93.4491C88.0346 93.7413 87.6919 94.1414 87.469 94.6088C87.0632 95.8531 88.1452 97.0839 89.2543 97.7737C90.6361 98.6391 92.1956 99.1811 93.8163 99.3591C95.437 99.5371 97.0769 99.3465 98.6136 98.8016C97.6939 99.1992 96.8847 99.8145 96.2556 100.594C95.6265 101.374 95.1964 102.295 95.0024 103.278C94.759 104.631 95.2188 106.254 96.5173 106.484C97.8157 106.714 98.7354 105.429 99.2223 104.266C100.133 102.165 100.559 99.8858 100.467 97.5979" fill="#F5F5F5"/>
<path d="M91.4316 119.914C94.4263 119.658 97.3288 118.751 99.9361 117.256C102.543 115.761 104.792 113.714 106.526 111.258C105.922 110.994 105.271 110.858 104.612 110.858C103.953 110.858 103.302 110.994 102.698 111.258C98.1935 112.796 94.3355 115.801 91.7427 119.792" fill="#455A64"/>
<path d="M105.499 102.264C104.59 101.309 103.628 100.406 102.618 99.5589C101.536 98.8126 100.412 98.1306 99.25 97.5166C101.866 98.2354 104.105 99.9359 105.499 102.264Z" fill="#263238"/>
<path d="M105.97 96.5159C104.902 96.4799 103.832 96.5524 102.778 96.7323C101.047 97.1245 99.7623 97.8549 99.7217 97.7467C100.586 97.0564 101.609 96.5917 102.697 96.3942C103.775 96.0956 104.918 96.1381 105.97 96.5159Z" fill="#263238"/>
<path d="M98.5329 91.8228C99.2376 92.6158 99.7062 93.5903 99.8854 94.636C100.19 95.6679 100.143 96.7719 99.7502 97.7738C99.7869 96.7507 99.7189 95.7264 99.5473 94.7171C99.1821 93.0671 98.4247 91.8769 98.5329 91.8228Z" fill="#263238"/>
<path d="M98.5059 96.8811C98.6302 96.6747 98.8107 96.508 99.0262 96.4002C99.2417 96.2925 99.4834 96.2482 99.7231 96.2725C99.9585 96.3067 100.179 96.4077 100.359 96.5635C100.539 96.7194 100.67 96.9234 100.737 97.1516C100.385 97.2737 100.052 97.4469 99.7501 97.6656C99.3758 97.3449 98.9566 97.0806 98.5059 96.8811Z" fill="#FAFAFA"/>
<path d="M90.6201 95.8529C91.0562 95.7092 91.5136 95.6406 91.9726 95.65C93.1139 95.5954 94.2572 95.7047 95.3674 95.9746C96.4832 96.2353 97.5574 96.6495 98.5594 97.2054C98.9911 97.3997 99.3813 97.6752 99.709 98.0169C98.2978 97.2971 96.8156 96.726 95.2863 96.3127C93.75 96.0051 92.1869 95.8511 90.6201 95.8529Z" fill="#263238"/>
<path d="M59.378 175.908C62.083 171.851 62.083 163.56 60.4735 159.002C58.8641 154.444 56.3213 150.224 55.1311 145.477C53.5487 139.282 54.4414 132.574 52.2368 126.541C50.5326 121.875 47.1107 118.075 43.77 114.369C41.7622 119.62 40.2762 125.056 39.3338 130.599C38.402 136.197 39.1552 141.945 41.4978 147.113C43.2831 150.697 46.0423 153.713 47.7735 157.311C49.5047 160.909 50.0998 164.547 51.574 168.05C53.0482 171.553 55.6316 174.948 59.378 175.746" fill="#455A64"/>
<path d="M44.3642 149.629C41.6592 143.597 38.4537 137.064 32.3404 134.589C30.2846 133.75 27.9447 133.399 26.2676 131.884C24.2794 130.153 23.779 127.326 22.7917 124.864C21.6416 122.088 19.7906 119.658 17.42 117.811C15.0493 115.964 12.2399 114.764 9.2666 114.328C11.6741 117.547 11.3224 121.97 10.9302 125.96C10.538 129.95 10.3486 134.454 12.986 137.483C15.3664 140.188 19.4645 141 21.8043 143.799C24.1442 146.599 24.1036 150.251 25.0504 153.605C26.7816 159.8 34.0851 165.899 40.3067 167.509L56.5368 169.741C50.5722 167.117 47.0422 155.647 44.3642 149.629Z" fill="#455A64"/>
<path d="M44.5273 118.629C44.8225 119.363 45.0754 120.112 45.2847 120.875C45.839 122.956 46.1655 125.092 46.2586 127.245C46.4479 129.95 46.3532 133.209 46.4208 136.807C46.3602 140.698 47.03 144.565 48.3955 148.209C50.0591 151.996 52.6965 155.039 54.2654 158.312C55.7337 161.149 56.986 164.092 58.0119 167.117C58.7162 169.151 59.2677 171.235 59.6619 173.352C59.8109 174.126 59.9192 174.907 59.9865 175.692C59.9389 175.491 59.9028 175.288 59.8783 175.083C59.8107 174.691 59.7025 174.109 59.5537 173.365C59.1223 171.263 58.5437 169.193 57.8225 167.171C56.7713 164.171 55.5057 161.252 54.0355 158.434C52.4801 155.201 49.8292 152.172 48.1386 148.317C46.7549 144.641 46.0847 140.734 46.1639 136.807C46.1639 133.209 46.1639 129.963 46.0557 127.258C45.9859 125.115 45.6912 122.984 45.1765 120.902C45.0278 120.158 44.7843 119.617 44.6896 119.225C44.6243 119.029 44.5701 118.831 44.5273 118.629Z" fill="#263238"/>
<path d="M59.9856 175.692C59.4394 175.561 58.9121 175.361 58.4167 175.096C57.0577 174.372 55.8647 173.373 54.9137 172.162C53.5183 170.362 52.3803 168.378 51.5324 166.265C50.5386 163.689 49.264 161.231 47.7319 158.934C45.9736 156.594 43.8637 154.687 42.4977 152.496C41.2566 150.585 40.3126 148.496 39.698 146.302C39.2898 144.827 39.0449 143.312 38.9677 141.784C38.9235 141.226 38.9235 140.665 38.9677 140.107C38.9677 140.107 38.9677 140.256 38.9677 140.54C38.9677 140.824 38.9676 141.243 39.0488 141.771C39.1663 143.288 39.4429 144.788 39.8738 146.247C40.4935 148.413 41.4423 150.47 42.6871 152.347C44.0396 154.511 46.1495 156.405 47.9348 158.772C49.4822 161.081 50.7618 163.558 51.7489 166.156C52.574 168.253 53.6796 170.227 55.0354 172.026C55.9643 173.233 57.1226 174.244 58.4438 175.002C59.4176 175.502 59.9992 175.651 59.9856 175.692Z" fill="#263238"/>
<path d="M52.9399 169.227C51.7299 169.647 50.4606 169.871 49.1799 169.89C46.0836 169.941 43.0151 169.298 40.1993 168.01C37.4137 166.707 34.7749 165.111 32.3276 163.249C31.3809 162.545 30.637 161.964 30.1231 161.545L29.528 161.071C29.3927 160.963 29.3251 160.895 29.3386 160.895L29.5685 161.031L30.1772 161.463L32.4494 163.086C34.9164 164.892 37.5526 166.455 40.321 167.753C43.1021 169.022 46.1228 169.681 49.1799 169.687C50.0873 169.669 50.9919 169.578 51.8849 169.416C52.2307 169.324 52.5836 169.26 52.9399 169.227Z" fill="#263238"/>
<path d="M10.2139 114.87C10.8858 115.514 11.5012 116.216 12.0533 116.966C13.5942 119.006 14.7786 121.293 15.5563 123.728C16.0838 125.257 16.2866 127.042 16.7329 128.854C16.9583 129.795 17.3826 130.675 17.9773 131.438C18.6371 132.217 19.4466 132.856 20.3577 133.318C22.1836 134.359 24.4152 135.022 26.1464 136.645C27.8416 138.38 29.0901 140.501 29.7847 142.826C30.6097 145.139 31.2319 147.465 32.1516 149.588C33.0408 151.62 34.201 153.522 35.6004 155.242C37.9925 158.143 40.7893 160.684 43.9049 162.789C46.5287 164.642 48.7739 165.954 50.3157 166.846L52.1011 167.901C52.5068 168.145 52.7097 168.294 52.7097 168.294C52.7097 168.294 52.4797 168.185 52.074 167.955L50.2616 166.941C48.7062 166.035 46.434 164.737 43.7831 162.884C40.6369 160.788 37.8121 158.245 35.3976 155.337C33.9774 153.601 32.799 151.681 31.8946 149.629C30.9613 147.492 30.3392 145.166 29.5142 142.866C28.8411 140.583 27.62 138.498 25.9571 136.794C24.28 135.225 22.0889 134.549 20.236 133.494C19.3 133.023 18.4641 132.375 17.7744 131.587C17.1584 130.788 16.7244 129.865 16.503 128.881C16.0432 127.029 15.8673 125.27 15.3399 123.755C14.59 121.332 13.4477 119.047 11.9586 116.993C11.4311 116.263 10.9713 115.735 10.6061 115.383C10.4678 115.218 10.3369 115.047 10.2139 114.87Z" fill="#263238"/>
<path d="M313.662 149.277C318.491 149.439 325.537 144.963 328.54 141.162C331.542 137.361 333.733 132.966 337.061 129.449C341.456 124.797 347.61 121.97 351.505 116.898C354.535 112.962 355.915 108.039 357.24 103.251C351.713 104.37 346.308 106.028 341.105 108.201C335.872 110.411 331.414 114.125 328.296 118.873C326.227 122.281 325.145 126.23 323.035 129.693C320.925 133.155 318.166 135.522 315.989 138.633C313.811 141.744 312.35 145.774 313.662 149.345" fill="#455A64"/>
<path d="M327.851 122.552C331.516 117.142 335.303 110.825 334.14 104.333C333.734 102.156 332.787 99.9918 333.126 97.8008C333.531 95.1904 335.655 93.2428 337.183 91.0382C338.912 88.5907 339.978 85.7372 340.276 82.7554C340.575 79.7737 340.097 76.7655 338.887 74.0237C337.467 77.7701 333.477 79.8395 329.947 81.6383C326.417 83.4371 322.468 85.6958 321.305 89.537C320.263 93.0129 321.805 96.8946 320.683 100.357C319.56 103.819 316.463 105.767 314.136 108.337C309.822 113.111 308.564 122.552 310.539 128.624L317.301 143.502C316.382 137.145 324.186 128.016 327.851 122.552Z" fill="#455A64"/>
<path d="M354.129 106.105C353.671 106.748 353.174 107.363 352.641 107.945C351.178 109.529 349.545 110.949 347.772 112.178C345.581 113.788 342.781 115.451 339.792 117.426C336.465 119.448 333.551 122.082 331.204 125.189C328.891 128.611 327.728 132.479 325.794 135.549C324.186 138.303 322.378 140.934 320.384 143.421C319.033 145.097 317.569 146.679 316.002 148.155C314.866 149.183 314.189 149.67 314.189 149.67C314.189 149.67 314.338 149.521 314.636 149.264L315.921 148.074C317.46 146.581 318.897 144.986 320.222 143.299C322.217 140.808 324.025 138.172 325.632 135.414C327.525 132.371 328.675 128.516 331.042 125.027C333.407 121.893 336.35 119.24 339.711 117.209C342.727 115.235 345.527 113.598 347.732 112.016C349.5 110.806 351.141 109.42 352.628 107.877C353.182 107.35 353.507 106.849 353.791 106.525C354.075 106.2 354.129 106.105 354.129 106.105Z" fill="#263238"/>
<path d="M314.176 149.67C313.992 149.141 313.878 148.591 313.838 148.033C313.724 146.497 313.931 144.954 314.447 143.502C315.222 141.363 316.292 139.342 317.625 137.497C319.269 135.282 320.661 132.892 321.777 130.369C322.819 127.664 323.306 124.824 324.482 122.498C325.434 120.428 326.697 118.517 328.229 116.831C329.252 115.691 330.399 114.67 331.651 113.788C332.101 113.451 332.576 113.148 333.071 112.881C332.962 112.983 332.845 113.073 332.719 113.152C332.489 113.301 332.137 113.544 331.705 113.869C330.498 114.786 329.383 115.818 328.377 116.952C326.88 118.643 325.644 120.549 324.712 122.606C323.617 124.905 323.143 127.691 322.102 130.464C320.973 133.008 319.562 135.417 317.896 137.646C316.563 139.461 315.485 141.45 314.69 143.556C314.163 144.983 313.929 146.501 314 148.02C313.973 149.088 314.217 149.67 314.176 149.67Z" fill="#263238"/>
<path d="M315.84 140.215C314.839 139.415 313.972 138.461 313.271 137.389C311.569 134.804 310.473 131.868 310.065 128.8C309.667 125.751 309.603 122.666 309.876 119.603C309.971 118.426 310.065 117.48 310.133 116.898L310.214 116.141C310.214 115.965 310.214 115.884 310.214 115.884C310.228 115.969 310.228 116.056 310.214 116.141V116.898C310.214 117.723 310.119 118.656 310.052 119.684C309.84 122.733 309.926 125.795 310.309 128.827C310.722 131.858 311.783 134.764 313.419 137.348C313.918 138.126 314.489 138.855 315.124 139.526C315.375 139.742 315.614 139.972 315.84 140.215Z" fill="#263238"/>
<path d="M338.968 75.0919C338.786 76.0146 338.523 76.9197 338.184 77.7969C337.279 80.1857 335.976 82.4037 334.329 84.3566C333.328 85.628 331.922 86.7505 330.637 88.103C329.965 88.793 329.449 89.6184 329.122 90.524C328.821 91.5039 328.711 92.5323 328.797 93.5537C328.905 95.6365 329.528 97.8817 329.081 100.222C328.52 102.578 327.397 104.763 325.808 106.592C324.293 108.526 322.657 110.298 321.358 112.205C320.133 114.021 319.151 115.99 318.437 118.061C317.262 121.637 316.606 125.363 316.489 129.125C316.341 132.33 316.422 134.94 316.489 136.739C316.489 137.564 316.489 138.254 316.489 138.809C316.489 139.363 316.489 139.525 316.489 139.525C316.489 139.525 316.489 139.282 316.489 138.809C316.489 138.335 316.489 137.578 316.381 136.739C316.314 134.94 316.192 132.33 316.314 129.111C316.403 125.328 317.046 121.578 318.221 117.98C318.927 115.854 319.918 113.834 321.169 111.975C322.522 110.041 324.104 108.282 325.619 106.348C327.178 104.554 328.282 102.411 328.838 100.1C329.271 97.8411 328.662 95.623 328.567 93.4996C328.478 92.4451 328.597 91.3834 328.919 90.3753C329.259 89.4394 329.793 88.5865 330.488 87.8731C331.84 86.5206 333.193 85.4116 334.207 84.1673C335.852 82.2358 337.168 80.0471 338.103 77.6887C338.361 77.0468 338.587 76.3923 338.779 75.7276C338.887 75.3354 338.968 75.0919 338.968 75.0919Z" fill="#263238"/>
<path d="M386.536 135.765C386.308 135.75 386.085 135.7 385.873 135.617C385.454 135.495 384.831 135.265 384.02 135.076C375.327 132.615 366.075 132.993 357.611 136.155C349.148 139.318 341.915 145.099 336.966 152.658C335.665 154.633 334.525 156.709 333.558 158.866C333.193 159.624 332.976 160.219 332.787 160.638C332.705 160.851 332.61 161.059 332.503 161.26C332.531 161.035 332.595 160.816 332.692 160.611C332.841 160.192 333.017 159.556 333.355 158.785C334.258 156.581 335.358 154.462 336.642 152.455C339.894 147.257 344.262 142.847 349.429 139.546C354.597 136.246 360.435 134.136 366.519 133.372C370.034 132.918 373.593 132.918 377.109 133.372C379.476 133.65 381.812 134.148 384.088 134.859C384.886 135.089 385.44 135.346 385.913 135.495C386.13 135.563 386.338 135.654 386.536 135.765Z" fill="#263238"/>
<path d="M382.952 134.061C381.024 136.133 379.694 138.689 379.106 141.457C378.517 144.225 378.692 147.101 379.611 149.778C379.99 150.833 380.693 151.996 381.816 152.036C382.938 152.077 383.804 150.819 384.209 149.71C385.065 147.347 385.425 144.833 385.266 142.324C385.108 139.816 384.435 137.367 383.29 135.13C384.758 139.022 387.34 142.395 390.715 144.827C392 145.734 393.785 146.505 395.07 145.598C396.355 144.692 396.247 142.893 395.773 141.419C394.903 138.928 393.259 136.781 391.081 135.292C388.903 133.802 386.305 133.049 383.668 133.142C386.026 133.375 388.398 132.88 390.465 131.724C392.533 130.568 394.196 128.807 395.232 126.677C396.003 125.04 396.139 122.619 394.556 121.794C394.045 121.588 393.495 121.494 392.944 121.52C392.393 121.545 391.854 121.69 391.364 121.943C389.382 122.745 387.596 123.965 386.128 125.519C384.66 127.074 383.544 128.926 382.857 130.951C383.939 128.656 384.326 126.096 383.97 123.584C383.614 121.073 382.532 118.721 380.855 116.817C380.376 116.167 379.733 115.656 378.992 115.335C378.25 115.014 377.437 114.896 376.635 114.991C374.661 115.519 373.93 117.953 373.93 119.995C373.955 122.543 374.551 125.053 375.675 127.34C376.798 129.627 378.421 131.633 380.422 133.209C379.124 132.326 377.631 131.772 376.071 131.596C374.511 131.419 372.932 131.625 371.469 132.195C369.562 132.952 367.736 134.968 368.534 136.875C369.332 138.782 371.766 138.903 373.714 138.606C377.246 138.045 380.61 136.705 383.56 134.684" fill="#00B09C"/>
<path d="M346.637 141.338C349.481 145.074 353.107 148.145 357.26 150.336C361.413 152.527 365.995 153.786 370.684 154.025C370.59 151.969 369.007 150.305 367.411 149.02C361.609 144.371 354.422 141.792 346.988 141.69" fill="#455A64"/>
<path d="M381.694 145.111C382.203 143.121 382.592 141.102 382.857 139.066C382.938 137.014 382.898 134.959 382.736 132.912C383.973 136.952 383.6 141.313 381.694 145.084V145.111Z" fill="#263238"/>
<path d="M389.714 140.973C388.868 139.526 387.881 138.167 386.766 136.915C384.805 134.968 382.708 133.886 382.857 133.724C384.492 134.295 385.964 135.256 387.145 136.523C388.451 137.697 389.351 139.255 389.714 140.973Z" fill="#263238"/>
<path d="M389.715 127.204C389.258 128.81 388.364 130.257 387.131 131.383C386.022 132.646 384.522 133.503 382.871 133.818C384.26 133.021 385.557 132.073 386.739 130.991C387.8 129.784 388.793 128.52 389.715 127.204Z" fill="#263238"/>
<path d="M382.951 131.424C383.326 131.408 383.697 131.503 384.018 131.697C384.34 131.891 384.597 132.176 384.757 132.515C384.917 132.854 384.974 133.233 384.92 133.605C384.865 133.976 384.703 134.323 384.452 134.602C383.996 134.229 383.485 133.928 382.938 133.71C383.045 132.952 383.045 132.182 382.938 131.424" fill="#FAFAFA"/>
<path d="M377.703 120.144C378.279 120.61 378.769 121.173 379.15 121.808C380.171 123.277 380.985 124.879 381.571 126.569C382.153 128.258 382.503 130.019 382.613 131.803C382.705 132.538 382.668 133.284 382.505 134.007C382.255 131.546 381.77 129.114 381.057 126.744C380.163 124.437 379.04 122.226 377.703 120.144Z" fill="#263238"/>
<path d="M255.464 59.1864C255.483 59.3888 255.483 59.5926 255.464 59.795C255.464 60.2278 255.464 60.7959 255.464 61.5127C255.464 62.2295 255.464 63.1628 255.464 64.2177C255.464 65.2727 255.464 66.4899 255.599 67.8154C255.708 70.5204 255.965 73.6312 256.37 77.1342C256.776 80.6372 257.398 84.4513 258.223 88.4276C259.048 92.404 260.063 96.1369 261.064 99.5047C262.064 102.872 263.133 105.875 264.093 108.35C264.553 109.608 265.026 110.717 265.446 111.691C265.865 112.665 266.203 113.517 266.501 114.193L267.177 115.775C267.265 115.957 267.333 116.147 267.38 116.343C267.271 116.175 267.177 115.999 267.096 115.816L266.338 114.261C266.014 113.598 265.635 112.773 265.216 111.785C264.796 110.798 264.31 109.716 263.863 108.472C262.862 105.997 261.794 103.062 260.725 99.6264C259.657 96.191 258.697 92.4987 257.845 88.5088C256.992 84.5189 256.492 80.6778 256.019 77.1748C255.545 73.6718 255.41 70.4934 255.329 67.8289C255.261 66.4764 255.329 65.2862 255.329 64.2313C255.329 63.1763 255.329 62.2566 255.329 61.5262C255.329 60.7959 255.329 60.1737 255.396 59.8086C255.395 59.5993 255.418 59.3905 255.464 59.1864Z" fill="#263238"/>
<path d="M256.506 78.5817C256.556 76.2722 257.402 74.0509 258.9 72.2925C259.118 71.9691 259.412 71.7038 259.756 71.52C260.1 71.3361 260.484 71.2391 260.874 71.2375C261.916 71.3863 262.376 72.5901 262.416 73.6721C262.465 75.4359 261.88 77.1587 260.766 78.5276C260.286 79.1864 259.68 79.7441 258.984 80.1688C258.288 80.5935 257.514 80.8768 256.709 81.0027" fill="#263238"/>
<path d="M258.778 91.1734C258.678 87.9848 259.485 84.8332 261.104 82.0846C261.334 81.7222 261.638 81.4132 261.997 81.1784C262.177 81.0617 262.383 80.9898 262.597 80.9686C262.811 80.9474 263.027 80.9776 263.228 81.0567C263.477 81.2358 263.678 81.4743 263.813 81.7505C263.947 82.0267 264.011 82.3321 263.998 82.6391C264.154 84.5951 263.761 86.5558 262.862 88.3002C261.964 90.0446 260.596 91.5035 258.913 92.5124" fill="#263238"/>
<path d="M261.726 101.966C261.991 99.2524 262.981 96.6597 264.593 94.46C264.754 94.1873 264.967 93.9489 265.22 93.7586C265.473 93.5683 265.761 93.4298 266.067 93.3509C267.027 93.2292 267.785 94.203 267.988 95.1362C268.1 96.123 268.012 97.1222 267.731 98.0747C267.45 99.0272 266.981 99.9136 266.351 100.682C265.284 102.058 264.043 103.29 262.659 104.347" fill="#263238"/>
<path d="M264.377 109.554C264.8 107.417 265.686 105.4 266.974 103.643C267.25 103.265 267.605 102.951 268.015 102.724C268.221 102.605 268.454 102.542 268.691 102.542C268.929 102.542 269.162 102.605 269.368 102.724C269.963 103.197 269.841 104.076 269.584 104.847C268.78 107.291 267.222 109.417 265.134 110.92" fill="#263238"/>
<path d="M263.199 106.497C260.771 104.915 258.205 103.557 255.531 102.44C255.325 102.321 255.092 102.259 254.854 102.259C254.617 102.259 254.384 102.321 254.178 102.44C254.044 102.553 253.946 102.703 253.896 102.871C253.845 103.039 253.845 103.218 253.894 103.387C254.003 103.719 254.183 104.024 254.422 104.279C255.601 105.605 257.066 106.647 258.705 107.327C260.345 108.006 262.117 108.305 263.889 108.202" fill="#263238"/>
<path d="M260.225 96.4212L253.922 92.3636C253.347 91.9328 252.695 91.616 252.001 91.4304C251.655 91.3063 251.279 91.2955 250.926 91.3997C250.574 91.5039 250.263 91.7176 250.04 92.0099C249.817 92.3022 249.693 92.6579 249.686 93.0254C249.679 93.393 249.788 93.7533 250 94.0543C250.382 94.6623 250.884 95.1868 251.474 95.5961C252.79 96.6838 254.293 97.5225 255.91 98.0712C256.63 98.3797 257.406 98.5387 258.189 98.5387C258.972 98.5387 259.748 98.3797 260.468 98.0712" fill="#263238"/>
<path d="M257.317 85.0462C255.579 82.6784 253.246 80.812 250.555 79.6362C250.14 79.412 249.674 79.3001 249.202 79.3116C248.724 79.4239 248.3 79.6981 248.002 80.0877C247.704 80.4772 247.549 80.9581 247.566 81.4486C247.58 81.9962 247.707 82.5349 247.94 83.0307C248.173 83.5266 248.506 83.9688 248.918 84.3294C249.75 85.0383 250.716 85.5719 251.758 85.8983C253.665 86.5872 255.669 86.9706 257.696 87.0344" fill="#263238"/>
<path d="M255.978 74.47C254.381 71.5216 252.052 69.0342 249.215 67.2476C248.956 66.9987 248.636 66.8216 248.287 66.7339C247.939 66.6461 247.573 66.6507 247.227 66.7472C247.026 66.86 246.857 67.0223 246.736 67.2188C246.615 67.4153 246.547 67.6394 246.537 67.8698C246.518 68.3317 246.596 68.7926 246.767 69.2223C247.467 71.1478 248.719 72.8242 250.367 74.0415C252.015 75.2588 253.985 75.963 256.032 76.066" fill="#263238"/>
<path d="M255.639 68.9653C254.9 67.3799 254.316 65.7266 253.895 64.0287C253.462 62.3284 253.528 60.5396 254.084 58.8756C254.316 58.1603 254.742 57.5234 255.315 57.0362C255.605 56.7976 255.951 56.6375 256.32 56.5712C256.69 56.5049 257.07 56.5346 257.425 56.6575C257.739 56.8091 258.016 57.0283 258.236 57.2996C258.456 57.5708 258.613 57.8873 258.696 58.2264C258.845 58.906 258.872 59.6066 258.777 60.2958C258.493 63.5959 257.492 67.4776 255.639 68.9653Z" fill="#263238"/>
<path d="M289.06 54.4932V54.669C289.06 54.8042 288.979 54.9665 288.911 55.1694C288.776 55.6428 288.573 56.2785 288.316 57.09C288.059 57.9015 287.721 58.9429 287.397 60.1467C287.072 61.3504 286.626 62.6894 286.261 64.2042C285.895 65.719 285.422 67.369 285.03 69.1679C284.638 70.9667 284.218 72.8738 283.813 74.9025C283.055 78.96 282.365 83.4504 281.892 88.1977C281.419 92.945 281.216 97.4759 281.148 101.601C281.148 103.67 281.148 105.659 281.148 107.471C281.148 109.283 281.283 111.015 281.378 112.583C281.473 114.152 281.594 115.545 281.689 116.776C281.784 118.007 281.892 119.089 281.987 119.955C282.081 120.82 282.149 121.469 282.203 121.956C282.203 122.173 282.203 122.335 282.203 122.484C282.203 122.633 282.203 122.66 282.203 122.66V122.484C282.203 122.349 282.203 122.173 282.122 121.97C282.122 121.483 281.96 120.807 281.851 119.968C281.743 119.13 281.594 118.034 281.486 116.803C281.378 115.572 281.202 114.098 281.108 112.597C281.013 111.096 280.891 109.324 280.851 107.484C280.81 105.645 280.769 103.67 280.756 101.601C280.756 97.4624 280.999 92.9179 281.459 88.1571C281.919 83.3963 282.649 78.906 283.42 74.8349C283.853 72.8061 284.232 70.872 284.678 69.0867C285.124 67.3014 285.53 65.6378 285.949 64.1365C286.369 62.6353 286.788 61.2692 287.14 60.079C287.491 58.8888 287.829 57.8744 288.127 57.0494C288.425 56.2244 288.627 55.6158 288.79 55.1424L288.979 54.6555L289.06 54.4932Z" fill="#455A64"/>
<path d="M283.38 76.5663C284.245 74.0004 285.976 71.8153 288.276 70.3853C288.634 70.0989 289.056 69.9047 289.507 69.8198C289.957 69.7349 290.422 69.7619 290.859 69.8984C291.955 70.4394 292.049 71.9813 291.725 73.158C291.159 75.1541 289.891 76.8785 288.154 78.0135C287.387 78.5855 286.513 78.9996 285.585 79.2318C284.656 79.464 283.691 79.5096 282.744 79.366" fill="#455A64"/>
<path d="M281.513 91.4574C282.524 87.8529 284.542 84.6112 287.329 82.1116C287.726 81.7856 288.186 81.5461 288.681 81.4083C288.914 81.3479 289.158 81.3434 289.393 81.3951C289.628 81.4468 289.847 81.5533 290.034 81.7058C290.254 81.9921 290.399 82.329 290.456 82.6857C290.512 83.0424 290.479 83.4077 290.358 83.7481C289.836 85.9922 288.699 88.0465 287.074 89.6805C285.45 91.3146 283.402 92.4638 281.161 92.9993" fill="#455A64"/>
<path d="M280.932 104.536C282.199 101.601 284.225 99.057 286.802 97.1652C287.073 96.9091 287.395 96.712 287.746 96.5863C288.098 96.4606 288.471 96.409 288.844 96.4348C289.953 96.6377 290.467 97.9902 290.372 99.1398C290.169 101.453 288.397 103.319 286.558 104.753C284.885 105.915 283.066 106.851 281.148 107.539" fill="#455A64"/>
<path d="M281.229 114.004C282.456 111.767 284.16 109.827 286.22 108.323C286.663 107.987 287.176 107.756 287.722 107.647C287.994 107.601 288.273 107.629 288.53 107.729C288.787 107.829 289.013 107.997 289.182 108.215C289.683 108.945 289.182 109.946 288.682 110.649C286.919 113.101 284.423 114.929 281.554 115.87" fill="#455A64"/>
<path d="M280.986 110.163C278.836 107.526 276.445 105.094 273.845 102.9C273.672 102.698 273.452 102.542 273.204 102.448C272.956 102.353 272.688 102.323 272.425 102.359C272.233 102.437 272.07 102.569 271.954 102.74C271.839 102.911 271.776 103.113 271.775 103.319C271.774 103.731 271.866 104.138 272.046 104.509C272.896 106.405 274.164 108.084 275.754 109.421C277.344 110.759 279.216 111.719 281.229 112.232" fill="#455A64"/>
<path d="M281.215 97.8954C279.349 95.6231 277.482 93.3374 275.602 91.1328C275.109 90.4499 274.495 89.8632 273.79 89.4016C273.428 89.186 273.014 89.0723 272.593 89.0723C272.172 89.0723 271.758 89.186 271.396 89.4016C271.071 89.6695 270.826 90.0227 270.69 90.4216C270.554 90.8205 270.532 91.2494 270.625 91.6603C270.834 92.4752 271.207 93.239 271.721 93.9055C272.806 95.5812 274.18 97.0512 275.778 98.247C276.483 98.8411 277.3 99.2873 278.18 99.5592C279.061 99.8311 279.987 99.923 280.904 99.8294" fill="#455A64"/>
<path d="M281.987 84.0861C280.888 80.8152 278.942 77.8938 276.347 75.6194C275.941 75.2177 275.437 74.9287 274.886 74.7808C274.315 74.735 273.746 74.8896 273.277 75.2179C272.808 75.5462 272.468 76.0278 272.316 76.5797C272.135 77.2002 272.086 77.8518 272.172 78.4924C272.258 79.133 272.478 79.7485 272.817 80.2991C273.51 81.3871 274.406 82.3327 275.454 83.0852C277.346 84.5233 279.449 85.6594 281.689 86.453" fill="#455A64"/>
<path d="M284.219 71.7785C283.678 67.8156 281.609 64.5155 279.228 61.3101C278.728 60.6338 278.024 59.9576 277.186 60.0522C276.923 60.1104 276.678 60.232 276.473 60.4065C276.268 60.5809 276.109 60.8029 276.009 61.0531C275.829 61.5601 275.755 62.0988 275.793 62.6355C275.889 65.0375 276.695 67.3571 278.107 69.3019C279.52 71.2468 281.477 72.7297 283.732 73.5638" fill="#455A64"/>
<path d="M285.801 65.4893C285.535 63.4585 285.458 61.4074 285.571 59.3624C285.699 57.3116 286.402 55.3382 287.6 53.6684C288.113 52.9447 288.821 52.3818 289.642 52.0454C290.049 51.8782 290.493 51.8203 290.929 51.8772C291.366 51.9341 291.78 52.104 292.131 52.37C292.433 52.6477 292.668 52.9905 292.817 53.3725C292.967 53.7544 293.029 54.1655 292.996 54.5745C292.919 55.3849 292.704 56.1762 292.36 56.9144C290.859 60.5121 288.303 64.4884 285.774 65.4893" fill="#455A64"/>
<path d="M307.82 74.2129C307.841 74.4152 307.841 74.6192 307.82 74.8215L307.712 76.5257C307.712 77.2696 307.59 78.1893 307.468 79.2307C307.347 80.2721 307.238 81.4759 307.036 82.8013C306.684 85.5063 306.129 88.5765 305.386 92.0254C304.642 95.4743 303.641 99.2343 302.41 103.116C301.179 106.998 299.705 110.622 298.353 113.936C297 117.25 295.58 120.049 294.295 122.403C293.7 123.593 293.091 124.634 292.577 125.568C292.063 126.501 291.603 127.272 291.225 127.907L290.319 129.368C290.218 129.543 290.105 129.71 289.98 129.869C290.051 129.681 290.137 129.5 290.237 129.328L291.076 127.826C291.441 127.177 291.888 126.379 292.429 125.446C292.97 124.513 293.51 123.458 294.092 122.254C295.309 119.887 296.635 117.006 298.014 113.774C299.394 110.541 300.719 106.903 301.991 103.035C303.262 99.1667 304.195 95.4202 304.993 91.9984C305.791 88.5765 306.346 85.4387 306.725 82.8148C306.941 81.4623 307.076 80.2992 307.225 79.2442C307.374 78.1893 307.468 77.2966 307.536 76.5392C307.604 75.7818 307.685 75.2678 307.739 74.835C307.751 74.626 307.778 74.418 307.82 74.2129Z" fill="#455A64"/>
<path d="M304.79 93.3915C304.974 91.093 304.363 88.8012 303.059 86.8994C302.875 86.5528 302.608 86.2568 302.283 86.0375C301.958 85.8182 301.583 85.6822 301.193 85.6416C300.151 85.6416 299.556 86.8724 299.407 87.9003C299.177 89.6523 299.585 91.4287 300.557 92.9046C301.37 94.3135 302.707 95.344 304.276 95.7719" fill="#455A64"/>
<path d="M301.233 105.686C301.675 102.528 301.206 99.3086 299.88 96.4078C299.684 96.0241 299.413 95.6838 299.082 95.407C298.915 95.2743 298.719 95.183 298.51 95.1407C298.301 95.0984 298.084 95.1062 297.879 95.1635C297.61 95.3143 297.384 95.529 297.218 95.7885C297.053 96.0481 296.955 96.3445 296.932 96.6513C296.58 98.5826 296.773 100.574 297.49 102.401C298.207 104.229 299.418 105.821 300.989 106.998" fill="#455A64"/>
<path d="M297.189 116.114C297.196 113.391 296.477 110.716 295.106 108.364C294.977 108.073 294.79 107.81 294.558 107.592C294.326 107.373 294.052 107.204 293.753 107.092C292.82 106.876 291.968 107.769 291.657 108.688C291.442 109.658 291.425 110.662 291.609 111.638C291.793 112.615 292.173 113.544 292.726 114.369C293.644 115.86 294.753 117.224 296.026 118.426" fill="#455A64"/>
<path d="M293.767 123.39C293.561 121.225 292.887 119.13 291.793 117.25C291.558 116.84 291.235 116.489 290.846 116.222C290.64 116.103 290.407 116.041 290.17 116.041C289.932 116.041 289.699 116.103 289.494 116.222C288.858 116.628 288.885 117.574 289.074 118.305C289.618 120.819 290.943 123.096 292.861 124.81" fill="#455A64"/>
<path d="M295.255 120.482C297.829 119.143 300.524 118.048 303.302 117.209C303.508 117.09 303.741 117.028 303.978 117.028C304.216 117.028 304.449 117.09 304.654 117.209C304.775 117.337 304.856 117.497 304.887 117.67C304.918 117.843 304.899 118.021 304.83 118.183C304.693 118.505 304.485 118.792 304.222 119.022C302.912 120.214 301.35 121.097 299.653 121.602C297.955 122.108 296.165 122.225 294.416 121.943" fill="#455A64"/>
<path d="M299.245 110.812L305.94 107.363C306.556 106.997 307.235 106.75 307.941 106.633C308.296 106.579 308.66 106.623 308.991 106.762C309.323 106.9 309.61 107.127 309.821 107.417C309.989 107.736 310.062 108.096 310.033 108.455C310.005 108.814 309.875 109.157 309.659 109.446C309.224 110.006 308.676 110.467 308.049 110.798C306.626 111.739 305.046 112.417 303.383 112.8C302.631 113.025 301.841 113.096 301.06 113.01C300.28 112.924 299.524 112.683 298.839 112.3" fill="#455A64"/>
<path d="M303.316 99.7482C305.285 97.5729 307.796 95.9583 310.592 95.0686C311.051 94.8838 311.55 94.8232 312.039 94.8927C312.493 95.0611 312.874 95.38 313.12 95.7961C313.367 96.2122 313.462 96.7002 313.392 97.1785C313.318 97.7202 313.131 98.2405 312.845 98.7062C312.559 99.172 312.178 99.5729 311.728 99.8835C310.825 100.526 309.805 100.985 308.726 101.236C306.759 101.724 304.728 101.898 302.707 101.75" fill="#455A64"/>
<path d="M305.738 89.3611C307.63 86.5987 310.194 84.3644 313.19 82.869C313.474 82.6487 313.81 82.5055 314.165 82.4533C314.521 82.4012 314.884 82.4419 315.219 82.5715C315.407 82.7049 315.558 82.8843 315.658 83.0927C315.757 83.301 315.802 83.5313 315.787 83.7617C315.773 84.2349 315.647 84.6981 315.422 85.1142C314.524 86.9537 313.106 88.4891 311.344 89.5302C309.581 90.5712 307.552 91.072 305.508 90.9706" fill="#455A64"/>
<path d="M306.643 83.9106C307.533 82.4105 308.281 80.8302 308.875 79.1904C309.476 77.5403 309.598 75.7538 309.227 74.0373C309.062 73.3019 308.702 72.6244 308.185 72.0762C307.92 71.8085 307.59 71.6142 307.227 71.5122C306.865 71.4103 306.482 71.4042 306.116 71.4946C305.799 71.6192 305.513 71.8123 305.279 72.0601C305.046 72.308 304.869 72.6044 304.763 72.9282C304.539 73.585 304.433 74.2767 304.452 74.9705C304.452 78.2842 305.007 82.247 306.698 83.9106" fill="#455A64"/>
<path d="M401.886 285.123C401.67 282.797 401.413 280.497 401.102 278.185C400.791 275.872 400.439 273.329 400.033 270.935C400.439 273.334 400.795 275.75 401.102 278.185C401.359 280.497 401.616 282.797 401.886 285.123Z" fill="#263238"/>
<path d="M383.574 313.891C381.599 309.347 381.153 304.329 379.841 299.555C379.137 296.998 377.961 294.266 375.607 293.144C374.052 292.386 372.199 292.494 370.549 291.967C364.598 290.155 362.975 281.688 357.335 279.064C355.52 278.372 353.608 277.966 351.668 277.86C344.134 276.954 336.33 274.303 331.583 268.271C330.028 266.323 328.878 264.011 326.944 262.428C325.01 260.846 322.007 260.156 320.182 261.779C321.777 265.025 323.333 268.271 324.888 271.476C326.121 274.492 327.915 277.246 330.177 279.591C332.598 281.769 336.155 282.905 339.063 281.539C339.936 280.905 340.974 280.534 342.052 280.471C342.83 280.637 343.519 281.085 343.986 281.728C348.043 286.368 346.758 294.05 342.755 298.784C338.751 303.517 332.855 305.952 327.147 308.251C325.187 309.254 322.985 309.69 320.79 309.509C316.841 308.765 314.744 304.383 313.595 300.461C311.012 291.764 309.767 282.337 304.492 275.006C302.802 272.707 300.705 270.597 299.677 267.906C298.595 264.984 298.852 261.576 297.135 259.02C295.417 256.464 291.562 254.773 291.305 251.527C291.157 249.255 292.996 247.239 295.038 246.266C297.081 245.292 299.366 244.913 301.463 244.102C302.288 243.736 303.221 243.128 303.248 242.222C303.248 240.869 301.395 240.301 300.922 239.043C300.448 237.785 301.842 236.338 302.45 234.891C303.803 231.713 300.516 228.494 297.365 227.209C294.213 225.924 290.453 224.964 288.993 221.799C288.452 220.303 288.106 218.744 287.965 217.16C287.234 213.237 284.408 209.437 280.526 208.788C276.644 208.138 272.276 211.682 272.911 215.631C273.29 217.809 274.886 219.5 275.752 221.501C276.617 223.503 276.387 226.506 274.399 227.155C271.058 228.183 267.839 221.961 265.04 224.098C266.189 228.156 267.298 232.078 268.448 236.095C264.052 238.367 258.805 234.255 256.925 229.576C255.045 224.896 254.977 219.621 252.759 215.144C250.541 210.668 244.509 207.3 240.695 210.478C240.492 216.253 247.985 218.593 251.285 223.259C253.679 226.627 253.327 232.105 249.797 234.255C246.267 236.406 240.722 232.659 242.061 228.737C242.534 227.385 243.643 226.235 243.778 224.788C243.9 222.962 242.426 221.501 241.073 220.338C238.95 218.485 236.813 216.673 234.676 214.928C233.38 213.65 231.832 212.655 230.132 212.007C225.736 210.654 221.34 214.346 219.027 218.336C216.715 222.326 215.389 227.06 212.184 230.401C207.558 235.256 198.807 235.554 194.479 230.401C190.151 225.248 192.342 215.78 198.74 213.927C201.161 213.251 204.217 213.319 205.502 211.141C207.734 207.286 201.364 202.35 203.568 198.468C205.245 195.479 209.709 196.845 212.955 195.763C216.201 194.681 217.986 191.448 219.893 188.595C221.8 185.741 224.735 182.928 228.008 183.672C227.56 181.714 227.677 179.669 228.346 177.775C229.212 175.949 231.633 174.786 233.229 175.949C231.606 178.654 233.54 182.468 236.38 183.834C239.22 185.2 242.52 184.875 245.631 184.51C248.742 184.145 252.678 182.955 252.921 179.776C252.81 178.74 252.842 177.693 253.016 176.666C254.368 172.879 261.266 178.099 263.904 175.043C265.432 173.46 263.755 170.633 261.618 170.119C259.481 169.605 257.317 170.376 255.153 170.444C252.989 170.512 250.352 169.376 250.257 167.171C250.162 164.966 252.543 163.438 252.8 161.301C253.219 157.663 247.16 156.716 245.036 159.678C242.913 162.64 243.684 166.684 244.306 170.282C244.928 173.879 245.293 178.126 242.683 180.655C241.56 182.373 238.625 181.467 237.706 179.655C236.786 177.842 236.948 175.597 236.786 173.582C236.624 171.567 235.731 169.173 233.77 168.618C232.417 168.239 230.929 168.916 229.536 169.105C223.991 169.795 220.069 162.491 221.895 157.108C223.721 151.725 228.657 148.222 233.513 145.463C237.07 143.461 241.493 141.581 245.036 143.624C246.686 144.557 247.836 146.18 249.459 147.154C252.259 148.844 255.721 148.222 258.926 148.29C264.04 148.445 268.94 150.383 272.776 153.768C274.21 155.12 275.549 157.311 274.426 158.894C273.304 160.476 269.746 160.936 270.369 162.951C271.312 163.213 272.301 163.27 273.268 163.12C274.236 162.969 275.16 162.613 275.979 162.077C276.799 161.541 277.494 160.836 278.019 160.009C278.544 159.183 278.887 158.254 279.025 157.284C279.954 157.721 280.751 158.395 281.337 159.238C281.924 160.081 282.278 161.063 282.365 162.086C283.405 161.1 284.641 160.345 285.992 159.87C287.343 159.395 288.78 159.211 290.207 159.329C291.635 159.448 293.021 159.867 294.276 160.559C295.53 161.251 296.624 162.199 297.486 163.343C298.198 164.719 299.146 165.96 300.286 167.009C301.571 167.847 303.789 167.428 303.951 165.913C303.981 165.422 303.893 164.93 303.694 164.479C302.937 162.275 302.139 160.097 301.368 157.933C304.33 156.31 307.833 158.839 309.835 161.558C317.287 171.715 322.603 165.616 333.112 167.266C340.212 168.375 343.323 173.014 347.34 178.627C359.621 195.871 375.864 210.018 387.036 228.047C388.213 229.927 389.295 231.834 390.309 233.782C390.12 233.295 389.957 232.808 389.768 232.321C385.409 220.636 379.976 209.38 373.538 198.698C372.176 196.426 370.774 194.172 369.332 191.935C368.439 190.583 367.519 189.23 366.627 187.878C365.45 186.133 364.206 184.442 362.961 182.752C361.974 181.399 360.987 180.047 359.972 178.694C359.269 177.788 358.539 176.882 357.808 175.989C357.078 175.097 356.212 173.947 355.32 172.946L352.615 169.795C352.345 169.454 352.056 169.129 351.749 168.821C350.829 167.725 349.842 166.657 348.855 165.575C348.779 165.451 348.683 165.341 348.571 165.25C348.314 164.966 348.03 164.669 347.732 164.385C346.948 163.479 346.082 162.599 345.257 161.68C343.905 160.26 342.484 158.826 341.051 157.46C339.874 156.27 338.67 155.134 337.426 153.998C336.182 152.861 335.262 151.982 334.153 151.008C333.044 150.035 331.975 149.101 330.866 148.155C329.514 146.992 328.161 145.855 326.809 144.719C322.95 141.572 318.982 138.601 314.907 135.806C313.892 135.089 312.905 134.454 311.877 133.723C310.849 132.993 309.808 132.371 308.793 131.722C307.779 131.072 306.724 130.369 305.669 129.774C304.614 129.179 303.573 128.422 302.518 127.854C301.666 127.34 300.841 126.853 299.975 126.393C299.529 126.109 299.123 125.879 298.623 125.649C296.81 124.607 294.957 123.607 293.104 122.673C292.185 122.187 291.265 121.7 290.305 121.24C289.128 120.631 287.924 120.036 286.707 119.495C286.541 119.378 286.359 119.287 286.166 119.225C285.084 118.711 284.002 118.197 282.893 117.71C281.337 117.02 279.769 116.357 278.213 115.694C276.428 114.951 274.643 114.207 272.803 113.517C270.964 112.827 268.746 112.002 266.757 111.312C264.769 110.623 262.7 109.96 260.59 109.27C258.48 108.58 256.451 108.039 254.341 107.458C250.203 106.322 246.014 105.316 241.777 104.442C241.698 104.425 241.621 104.403 241.547 104.374C239.924 104.049 238.301 103.725 236.678 103.468C236.574 103.458 236.47 103.458 236.367 103.468C235.663 103.346 234.933 103.211 234.203 103.116C231.173 102.602 228.116 102.151 225.033 101.764C224.681 101.764 224.302 101.669 223.91 101.628C223.017 101.507 222.138 101.439 221.205 101.344C219.176 101.141 217.147 100.979 215.065 100.857C212.982 100.736 210.764 100.6 208.6 100.533C206.436 100.465 204.082 100.398 201.837 100.398C195.859 100.398 189.935 100.655 184.079 101.209C182.726 101.304 181.306 101.439 179.94 101.601C178.574 101.764 177.073 101.926 175.639 102.115C174.205 102.305 172.772 102.507 171.379 102.737C169.985 102.967 168.538 103.197 167.105 103.454C165.901 103.644 164.657 103.874 163.453 104.131C160.45 104.712 157.502 105.361 154.567 106.078C153.214 106.403 151.862 106.754 150.509 107.147C149.157 107.539 147.804 107.89 146.452 108.283C144.193 108.932 142.002 109.635 139.797 110.352L134.455 112.205C134.411 112.188 134.363 112.188 134.32 112.205C132.507 112.854 130.763 113.557 128.977 114.247L128.693 114.342C127.07 114.991 125.434 115.694 123.851 116.357C121.85 117.196 119.875 118.102 117.927 119.062C116.277 119.847 114.654 120.631 113.058 121.429C111.462 122.227 109.623 123.187 107.932 124.134L107.743 124.229C106.12 125.108 104.497 126.014 102.901 126.934C101.305 127.854 99.6279 128.841 98.0049 129.882C96.4766 130.816 94.9888 131.762 93.4875 132.736C92.9195 133.088 92.3785 133.48 91.8104 133.872C90.2144 134.914 88.6861 135.982 87.1307 137.078C85.2102 138.43 83.3708 139.783 81.5178 141.203C79.8948 142.434 78.3124 143.691 76.7435 144.963C67.7275 152.284 59.3563 160.366 51.7221 169.119C49.017 172.175 46.4743 175.286 43.9992 178.464C41.8893 181.169 39.8605 183.942 37.9129 186.796C36.1637 189.275 34.4731 191.8 32.841 194.37C34.4731 191.8 36.1637 189.275 37.9129 186.796C38.4269 186.796 38.9273 186.661 39.4413 186.634C42.3086 186.404 45.3247 186.498 47.908 185.281C50.4913 184.064 51.9655 181.9 54.1431 180.344C59.6883 176.287 68.7636 175.584 70.2514 168.835C70.7654 166.562 70.1567 164.101 70.9818 161.923C72.5507 157.866 77.866 157.298 82.1264 157.352C83.9388 157.352 86.0758 157.622 86.9008 159.232C87.1308 159.84 87.2327 160.489 87.2002 161.138C87.1676 161.788 87.0012 162.423 86.7115 163.005C84.0331 170.66 78.7915 177.153 71.8744 181.386C66.3291 184.821 59.1067 187.486 57.5784 193.897C58.3358 196.074 62.2311 195.912 62.5421 198.184C62.7721 199.996 60.4728 200.889 59.6477 202.566C58.4305 204.933 61.2031 207.814 63.8541 207.679C66.505 207.543 68.6825 205.609 70.6166 203.797C76.4053 198.387 82.4916 192.409 84.588 184.632C85.4807 181.413 85.8053 177.653 88.348 175.516C89.1358 174.952 90.0454 174.58 91.0031 174.432C91.9609 174.284 92.94 174.364 93.8615 174.664C94.783 174.964 95.621 175.476 96.3079 176.16C96.9947 176.844 97.5112 177.68 97.8155 178.6C100.331 177.166 104.24 176.098 105.552 178.762C105.842 179.754 106.024 180.774 106.093 181.805C106.918 185.957 112.49 187.837 113.058 192.017C113.735 196.859 107.648 199.347 102.901 200.132C98.6135 200.821 94.3126 201.484 90.0116 202.214C88.1149 202.351 86.2806 202.95 84.6692 203.959C83.869 204.506 83.2765 205.307 82.9869 206.232C82.6974 207.157 82.7278 208.152 83.0732 209.058C83.7172 209.924 84.4669 210.705 85.3048 211.384C88.8619 215.023 85.9405 222.516 80.9092 222.678C79.1915 222.746 77.5009 222.096 75.7832 222.029C70.6978 221.799 66.6538 226.37 64.2328 230.942C61.8118 235.513 59.9994 240.734 55.9283 243.858C49.3687 248.876 38.0617 247.713 34.8833 255.436C33.6119 258.546 34.2747 262.049 34.7886 265.39C35.3026 268.731 35.519 272.396 33.612 275.142C31.7049 277.887 26.8494 278.455 25.4293 275.412C24.9472 274.023 24.8814 272.524 25.2399 271.098C25.9973 266.296 26.7277 261.495 27.4716 256.694C28.0126 253.123 28.486 249.133 26.4166 246.225C23.5222 242.168 17.0302 242.519 13.2702 245.792C9.51025 249.065 7.98193 254.191 6.94049 259.101C6.16956 262.726 5.27691 267.852 3.30224 272.004C2.63951 276.061 2.09851 280.119 1.67924 284.176C1.25996 288.234 0.975924 292.576 0.827148 296.85C1.39904 296.364 1.94103 295.845 2.45015 295.294C4.45187 293.184 8.49588 284.271 12.1206 288.653C12.5659 289.236 12.8072 289.949 12.8072 290.682C12.8072 291.415 12.5659 292.128 12.1206 292.711C10.998 294.172 8.77991 294.496 7.9143 296.092C6.87287 297.972 8.33356 300.298 10.0512 301.502C11.7689 302.706 13.8653 303.544 15.0826 305.33C17.4089 308.725 15.1773 313.891 17.436 317.354C19.37 320.343 23.5087 320.532 27.0523 320.924L28.256 321.114C29.2434 313.986 32.5164 308.184 42.0651 305.979C55.2521 302.922 72.5642 314.094 79.9354 324.17C88.2127 335.477 92.108 351.504 104.808 357.185C113.87 361.242 126.773 359.768 131.195 368.816C135.145 376.932 128.261 386.047 127.206 395.028C126.543 400.966 128.45 406.863 128.896 412.8C129.343 418.738 127.544 425.703 122.282 428.205C119.32 429.558 115.588 429.395 113.207 431.668C108.974 435.725 112.436 444.192 108.203 448.276C106.715 449.697 104.646 450.224 102.793 451.157C93.3252 456.053 93.5281 470.322 97.9508 480.223L98.4242 481.251C128.021 499.329 161.847 509.315 196.516 510.21C231.186 511.105 265.482 502.877 295.972 486.35C311.524 477.878 325.909 467.421 338.765 455.242C344.153 450.121 349.251 444.702 354.035 439.012C357.416 435.062 360.595 430.897 363.651 426.731C365.207 424.553 366.735 422.376 368.169 420.144C378.991 403.962 387.419 386.3 393.19 367.707C396.76 356.377 399.326 344.755 400.859 332.975C401.463 328.358 401.914 323.697 402.211 318.99C401.171 320.111 399.918 321.013 398.524 321.642C397.13 322.272 395.625 322.616 394.096 322.655C389.484 322.547 385.508 318.436 383.574 313.891Z" fill="#00B09C"/>
<path d="M26.863 359.295C26.2274 353.425 28.1344 347.555 28.2155 341.617C28.2832 337.56 27.9991 333.218 27.9315 329.107C24.5089 328.96 21.1079 328.489 17.7742 327.7C17.0508 327.612 16.3833 327.266 15.8942 326.726C15.5501 326.055 15.4046 325.3 15.4749 324.549C15.2179 319.95 10.8629 316.894 6.9541 314.594C4.99729 313.347 2.91693 312.304 0.746094 311.484C0.746094 311.97 0.746094 312.417 0.746094 312.836C1.49968 335.058 5.81967 357.014 13.5408 377.865C16.974 387.138 21.1019 396.14 25.8892 404.793C27.8504 408.526 30.0144 412.191 32.2866 415.789C35.0863 420.239 38.0077 424.58 41.159 428.76C44.094 432.817 47.2048 436.712 50.4914 440.472C54.9758 445.672 59.7249 450.638 64.7197 455.35C69.1379 459.561 73.7545 463.56 78.5695 467.347C67.5871 437.321 57.2404 406.673 38.454 381.111C33.4497 374.402 27.7827 367.599 26.863 359.295Z" fill="#00B09C"/>
<path d="M0.665037 301.732C0.665037 302.963 0.665037 304.194 0.665037 305.424C0.665037 306.439 0.665037 307.426 0.665037 308.427C0.665037 307.426 0.665037 306.439 0.665037 305.424C0.610936 304.194 0.651512 302.963 0.665037 301.732Z" fill="#263238"/>
<g opacity="0.6">
<path opacity="0.6" d="M89.7559 475.624C91.4465 476.787 93.1506 477.923 94.8954 479.032C96.0991 479.803 97.3029 480.547 98.5472 481.291C97.3029 480.547 96.0991 479.803 94.8954 479.032C93.1506 477.923 91.4465 476.787 89.7559 475.624Z" fill="#263238"/>
</g>
<g opacity="0.6">
<path opacity="0.6" d="M0.800051 296.903C0.77946 297.281 0.77946 297.661 0.800051 298.039C0.800051 299.256 0.800047 300.501 0.732422 301.732C0.732422 300.501 0.732426 299.256 0.800051 298.039C0.77946 297.661 0.77946 297.281 0.800051 296.903Z" fill="#263238"/>
</g>
<g opacity="0.6">
<path opacity="0.6" d="M0.651367 308.427C0.651367 309.428 0.651367 310.442 0.651367 311.429C0.664892 310.442 0.664892 309.428 0.651367 308.427Z" fill="#263238"/>
</g>
<path d="M28.2961 321.154L27.0924 320.965C23.5488 320.573 19.4101 320.383 17.476 317.394C15.2173 313.932 17.476 308.765 15.1227 305.37C13.9054 303.585 11.809 302.801 10.0913 301.543C8.37365 300.285 6.91294 297.972 7.95437 296.133C8.81998 294.537 11.0381 294.212 12.1607 292.751C12.606 292.169 12.8472 291.456 12.8472 290.723C12.8472 289.989 12.606 289.277 12.1607 288.694C8.53595 284.312 4.49194 293.225 2.49022 295.335C1.9811 295.886 1.43911 296.405 0.867217 296.89C0.846625 297.269 0.846625 297.648 0.867217 298.026C0.867217 299.244 0.867212 300.488 0.799587 301.719C0.731962 302.949 0.799587 304.18 0.799587 305.411C0.799587 306.425 0.799587 307.413 0.799587 308.414C0.799587 309.414 0.799587 310.429 0.799587 311.416C2.97043 312.237 5.05078 313.279 7.0076 314.527C10.9163 316.826 15.2714 319.937 15.5284 324.481C15.4581 325.232 15.6035 325.988 15.9477 326.659C16.4125 327.213 17.0602 327.582 17.7736 327.7C21.1232 328.511 24.5425 329 27.985 329.161" fill="#00B09C"/>
<path d="M27.9442 329.053C27.9442 333.11 28.2958 337.479 28.2282 341.563C28.1335 347.501 26.2265 353.371 26.8757 359.241C27.7954 367.545 33.4624 374.348 38.3991 381.03C57.1854 406.592 67.5321 437.24 78.5145 467.266C80.5568 468.916 82.572 470.471 84.7225 471.999C86.3726 473.217 88.0452 474.407 89.7403 475.57C91.4309 476.733 93.1351 477.869 94.8799 478.978C96.0836 479.749 97.2873 480.493 98.5316 481.237L98.0582 480.209C93.6355 470.309 93.3786 456.04 102.9 451.144C104.713 450.211 106.782 449.683 108.31 448.263C112.544 444.205 109.081 435.739 113.315 431.654C115.695 429.382 119.428 429.544 122.39 428.192C127.705 425.69 129.423 418.724 129.004 412.787C128.584 406.849 126.65 400.952 127.313 395.015C128.368 386.034 135.252 376.918 131.303 368.803C126.88 359.755 113.977 361.215 104.915 357.171C92.2424 351.491 88.3202 335.464 80.0428 324.157C72.6311 314.04 55.319 302.909 42.1726 305.965C32.6239 308.17 29.3508 313.972 28.3635 321.1" fill="#00B09C"/>
<path d="M13.2434 245.752C17.0033 242.478 23.4954 242.086 26.3898 246.184C28.4591 249.092 27.9857 253.082 27.4447 256.653C26.7008 261.454 25.9705 266.256 25.2131 271.057C24.8546 272.483 24.9204 273.982 25.4024 275.371C26.7549 278.415 31.7051 277.833 33.5851 275.101C35.4651 272.369 35.2622 268.649 34.7618 265.349C34.2614 262.049 33.5851 258.506 34.8565 255.395C38.0349 247.672 49.3418 248.835 55.9015 243.817C59.959 240.693 61.7849 235.472 64.2059 230.901C66.6269 226.329 70.6709 221.758 75.7563 221.988C77.474 221.988 79.1647 222.705 80.8824 222.637C85.9137 222.475 88.8351 214.982 85.278 211.344C84.4401 210.664 83.6904 209.883 83.0464 209.017C82.701 208.112 82.6706 207.116 82.9601 206.191C83.2496 205.266 83.8422 204.466 84.6423 203.918C86.2537 202.909 88.0881 202.31 89.9847 202.174C94.2857 201.457 98.5867 200.821 102.874 200.091C107.621 199.347 113.694 196.858 113.031 191.976C112.463 187.797 106.891 185.917 106.066 181.764C105.997 180.733 105.816 179.713 105.525 178.721C104.173 176.016 100.304 177.125 97.7887 178.559C97.4844 177.639 96.9679 176.803 96.2811 176.119C95.5942 175.436 94.7562 174.923 93.8347 174.623C92.9132 174.323 91.9341 174.244 90.9763 174.392C90.0185 174.54 89.109 174.911 88.3212 175.475C85.7784 177.612 85.4538 181.372 84.5612 184.591C82.4648 192.368 76.3785 198.278 70.5897 203.756C68.6421 205.568 66.4511 207.516 63.8272 207.638C61.2033 207.76 58.4172 204.933 59.6209 202.525C60.4459 200.902 62.7452 199.956 62.5153 198.143C62.2042 195.871 58.309 196.033 57.5516 193.856C59.0799 187.445 66.3023 184.78 71.8476 181.345C78.6617 177.096 83.8163 170.643 86.4547 163.059C86.7444 162.477 86.9108 161.841 86.9434 161.192C86.976 160.543 86.8741 159.894 86.6441 159.286C85.819 157.676 83.6821 157.406 81.8697 157.406C77.6093 157.406 72.2939 157.933 70.725 161.977C69.9 164.155 70.5086 166.616 69.9946 168.888C68.5069 175.651 59.4316 176.381 53.8863 180.398C51.7223 181.954 50.0451 184.131 47.6512 185.335C45.2573 186.539 42.0518 186.498 39.1845 186.687C38.6706 186.687 38.1701 186.782 37.6562 186.85C35.9069 189.329 34.2163 191.854 32.5843 194.424C30.9522 196.994 29.3833 199.604 27.8775 202.255C20.679 214.81 14.835 228.094 10.4437 241.883C8.87478 246.725 7.50875 251.662 6.30502 256.666C5.10128 261.671 4.10042 266.742 3.27539 271.882C5.25005 267.73 6.14271 262.604 6.91364 258.979C7.95507 254.151 9.51045 249.038 13.2434 245.752Z" fill="#00B09C"/>
<g opacity="0.6">
<path opacity="0.6" d="M402.766 302.611C402.766 299.663 402.658 296.728 402.509 293.82C402.658 296.728 402.753 299.663 402.766 302.611C402.766 303.545 402.766 304.491 402.766 305.425C402.766 309.969 402.617 314.446 402.36 318.95C402.617 314.473 402.766 309.996 402.766 305.425C402.82 304.491 402.82 303.545 402.766 302.611Z" fill="#263238"/>
</g>
<g opacity="0.6">
<path opacity="0.6" d="M390.188 233.863C391.149 236.446 392.041 239.057 392.893 241.694C392.041 239.057 391.149 236.446 390.188 233.863Z" fill="#263238"/>
</g>
<path d="M402.767 302.611C402.767 299.663 402.659 296.728 402.51 293.82C402.361 290.912 402.131 288.018 401.834 285.123C401.617 282.797 401.36 280.498 401.049 278.185C400.738 275.872 400.386 273.329 399.981 270.936C398.799 263.76 397.232 256.654 395.287 249.647C394.53 246.942 393.746 244.318 392.893 241.694C392.041 239.07 391.149 236.447 390.189 233.863C389.174 231.916 388.092 230.009 386.915 228.129C375.744 210.1 359.5 195.952 347.219 178.708C343.162 173.095 340.092 168.456 332.991 167.347C322.482 165.697 317.167 171.797 309.714 161.639C307.713 158.934 304.21 156.392 301.248 158.015C302.018 160.179 302.816 162.356 303.574 164.561C303.772 165.011 303.86 165.503 303.831 165.994C303.669 167.509 301.45 167.928 300.166 167.09C299.025 166.041 298.078 164.801 297.366 163.425C296.504 162.281 295.409 161.332 294.155 160.64C292.901 159.948 291.514 159.529 290.087 159.411C288.659 159.292 287.223 159.476 285.871 159.951C284.52 160.426 283.284 161.181 282.245 162.167C282.158 161.144 281.803 160.162 281.217 159.319C280.63 158.476 279.833 157.803 278.904 157.365C278.767 158.335 278.424 159.264 277.899 160.09C277.374 160.917 276.678 161.622 275.859 162.158C275.04 162.695 274.115 163.05 273.148 163.201C272.18 163.352 271.192 163.294 270.248 163.032C269.639 161.058 273.115 160.706 274.306 158.975C275.496 157.244 274.089 155.188 272.656 153.849C268.819 150.464 263.92 148.526 258.806 148.371C255.587 148.371 252.124 148.926 249.338 147.235C247.715 146.261 246.633 144.638 244.916 143.705C241.372 141.663 236.949 143.543 233.392 145.544C228.523 148.249 223.492 151.779 221.774 157.19C220.056 162.6 223.871 169.876 229.416 169.186C230.768 168.997 232.27 168.321 233.649 168.699C235.61 169.254 236.503 171.594 236.665 173.663C236.828 175.732 236.665 177.91 237.585 179.736C238.505 181.562 241.44 182.441 242.562 180.737C245.173 178.208 244.848 173.974 244.185 170.363C243.522 166.752 242.833 162.708 244.916 159.759C246.998 156.811 253.098 157.744 252.679 161.382C252.422 163.519 250.042 165.075 250.136 167.252C250.231 169.43 252.841 170.62 255.032 170.525C257.223 170.431 259.401 169.646 261.497 170.201C263.594 170.755 265.311 173.541 263.783 175.124C261.146 178.18 254.315 172.96 252.895 176.747C252.721 177.774 252.689 178.821 252.801 179.858C252.557 183.036 248.635 184.213 245.511 184.591C242.386 184.97 239.086 185.281 236.259 183.915C233.433 182.549 231.485 178.762 233.108 176.03C231.512 174.867 229.051 176.03 228.226 177.856C227.557 179.75 227.439 181.795 227.887 183.753C224.574 183.009 221.612 185.863 219.772 188.676C217.933 191.489 216.053 194.843 212.834 195.844C209.615 196.845 205.125 195.493 203.448 198.549C201.243 202.431 207.613 207.368 205.382 211.222C204.11 213.4 201.054 213.332 198.619 214.008C192.222 215.861 190.004 225.397 194.359 230.482C198.714 235.567 207.438 235.283 212.063 230.482C215.269 227.141 216.58 222.435 218.907 218.418C221.233 214.401 225.669 210.789 230.011 212.088C231.712 212.737 233.259 213.731 234.555 215.009C236.692 216.822 238.829 218.634 240.953 220.419C242.305 221.582 243.82 223.043 243.658 224.869C243.522 226.316 242.413 227.452 241.94 228.818C240.587 232.741 246.173 236.474 249.676 234.337C253.179 232.2 253.558 226.708 251.164 223.341C247.864 218.675 240.344 216.335 240.574 210.56C244.388 207.381 250.407 210.722 252.638 215.226C254.87 219.73 254.924 225.031 256.804 229.657C258.684 234.283 263.932 238.448 268.327 236.176C267.178 232.119 266.069 228.169 264.919 224.179C267.719 222.042 270.938 228.237 274.278 227.236C276.321 226.587 276.564 223.598 275.631 221.582C274.698 219.567 273.169 217.89 272.791 215.713C272.155 211.763 276.483 208.22 280.405 208.869C284.328 209.518 287.168 213.319 287.844 217.241C287.986 218.825 288.331 220.384 288.872 221.88C290.333 224.991 294.12 225.938 297.244 227.29C300.368 228.643 303.641 231.794 302.33 234.972C301.721 236.325 300.301 237.677 300.801 239.125C301.302 240.572 303.128 240.937 303.128 242.303C303.128 243.209 302.167 243.818 301.342 244.183C299.246 245.062 296.947 245.346 294.918 246.347C292.889 247.348 291.036 249.336 291.185 251.608C291.442 254.854 295.242 256.41 297.014 259.101C298.786 261.793 298.475 265.066 299.557 267.987C300.585 270.692 302.681 272.788 304.372 275.088C309.647 282.418 310.891 291.845 313.474 300.542C314.624 304.464 316.72 308.846 320.67 309.59C322.864 309.771 325.066 309.336 327.026 308.332C332.734 306.02 338.644 303.558 342.634 298.865C346.624 294.172 347.977 286.449 343.865 281.81C343.398 281.166 342.709 280.718 341.931 280.552C340.853 280.615 339.816 280.986 338.942 281.62C336.034 282.973 332.477 281.85 330.056 279.673C327.795 277.327 326 274.573 324.768 271.558C323.212 268.352 321.657 265.106 320.061 261.86C321.941 260.237 324.93 260.913 326.823 262.509C328.717 264.105 329.907 266.405 331.463 268.352C336.21 274.384 344.014 277.035 351.547 277.942C353.487 278.047 355.399 278.453 357.214 279.145C362.854 281.769 364.477 290.236 370.428 292.048C372.078 292.576 373.931 292.467 375.487 293.225C377.84 294.347 379.017 297.08 379.72 299.636C381.073 304.41 381.478 309.428 383.453 313.972C385.428 318.517 389.363 322.628 394.205 322.696C395.734 322.657 397.24 322.313 398.633 321.683C400.027 321.054 401.281 320.152 402.321 319.031C402.577 314.554 402.726 310.077 402.726 305.506C402.821 304.491 402.821 303.545 402.767 302.611Z" fill="#00B09C"/>
<g opacity="0.2">
<path opacity="0.2" d="M78.5008 467.32C80.5431 468.97 82.5583 470.525 84.7088 472.054C86.3589 473.271 88.0315 474.461 89.7267 475.624C91.4173 476.787 93.1214 477.923 94.8662 479.033C96.0699 479.803 97.2737 480.547 98.518 481.291L98.0446 480.263C93.6219 470.363 93.3649 456.094 102.887 451.198C104.699 450.265 106.768 449.737 108.297 448.317C112.53 444.26 109.068 435.793 113.301 431.708C115.681 429.436 119.414 429.598 122.376 428.246C127.692 425.744 129.409 418.778 128.99 412.841C128.571 406.903 126.637 401.006 127.299 395.069C128.354 386.088 135.239 376.972 131.289 368.857C126.867 359.809 113.964 361.27 104.902 357.226C92.2288 351.545 88.3065 335.518 80.0292 324.211C72.6174 314.094 55.3053 302.963 42.1589 306.02C32.6102 308.224 29.3371 314.026 28.3498 321.154L27.1461 320.965C23.6025 320.573 19.4638 320.383 17.5297 317.394C15.271 313.932 17.5297 308.765 15.1764 305.37C13.9591 303.585 11.8627 302.801 10.145 301.543C8.42734 300.285 6.9531 297.972 8.00806 296.133C8.87367 294.537 11.0918 294.212 12.2144 292.751C12.6597 292.169 12.9009 291.456 12.9009 290.723C12.9009 289.989 12.6597 289.277 12.2144 288.694C8.58964 284.312 4.54565 293.225 2.54393 295.335C2.03481 295.886 1.4928 296.405 0.920907 296.89C0.900315 297.269 0.900315 297.648 0.920907 298.026C0.920907 299.244 0.920923 300.488 0.853298 301.719C0.785672 302.949 0.853298 304.18 0.853298 305.411C0.853298 306.425 0.853298 307.413 0.853298 308.414C0.853298 309.414 0.853298 310.429 0.853298 311.416C0.853298 311.903 0.853298 312.349 0.853298 312.769C1.60689 334.99 5.92687 356.946 13.648 377.797C17.0431 387.091 21.1348 396.115 25.8882 404.793C27.8494 408.526 30.0134 412.192 32.2856 415.789C35.0853 420.239 38.0067 424.581 41.158 428.76C44.093 432.817 47.2038 436.713 50.4904 440.473C54.9748 445.672 59.7239 450.638 64.7187 455.35C69.1369 459.561 73.7535 463.56 78.5685 467.347" fill="black"/>
</g>
<g opacity="0.2">
<path opacity="0.2" d="M75.7563 221.988C77.474 221.988 79.1647 222.705 80.8824 222.637C85.9137 222.475 88.8351 214.982 85.278 211.344C84.4401 210.665 83.6904 209.883 83.0464 209.018C82.701 208.112 82.6706 207.116 82.9601 206.191C83.2496 205.266 83.8422 204.466 84.6423 203.919C86.2537 202.909 88.0881 202.31 89.9847 202.174C94.2857 201.457 98.5867 200.821 102.874 200.091C107.621 199.347 113.694 196.859 113.031 191.976C112.463 187.797 106.891 185.917 106.066 181.765C105.997 180.734 105.816 179.713 105.525 178.721C104.173 176.016 100.304 177.125 97.7887 178.559C97.4844 177.639 96.9679 176.803 96.2811 176.12C95.5942 175.436 94.7562 174.923 93.8347 174.623C92.9132 174.323 91.9341 174.244 90.9763 174.392C90.0185 174.54 89.109 174.911 88.3212 175.475C85.7784 177.612 85.4538 181.372 84.5612 184.591C82.4648 192.368 76.3785 198.279 70.5897 203.756C68.6421 205.569 66.4511 207.516 63.8272 207.638C61.2033 207.76 58.4172 204.933 59.6209 202.526C60.4459 200.903 62.7452 199.956 62.5153 198.143C62.2042 195.871 58.309 196.034 57.5516 193.856C59.0799 187.445 66.3023 184.781 71.8476 181.345C78.6617 177.097 83.8163 170.644 86.4547 163.059C86.7444 162.477 86.9108 161.842 86.9434 161.192C86.976 160.543 86.8741 159.894 86.6441 159.286C85.819 157.676 83.6821 157.406 81.8697 157.406C77.6093 157.406 72.2939 157.933 70.725 161.977C69.9 164.155 70.5086 166.616 69.9946 168.889C68.5069 175.651 59.4316 176.382 53.8863 180.399C51.7223 181.954 50.0451 184.131 47.6512 185.335C45.2573 186.539 42.0518 186.498 39.1845 186.688C38.6706 186.688 38.1701 186.782 37.6562 186.85C35.9069 189.33 34.2163 191.854 32.5843 194.424C30.9522 196.994 29.3833 199.604 27.8775 202.255C20.679 214.81 14.835 228.094 10.4437 241.884C8.87478 246.726 7.50875 251.662 6.30502 256.667C5.10128 261.671 4.10042 266.743 3.27539 271.882C5.25005 267.73 6.14271 262.604 6.91364 258.979C7.95507 254.07 9.51045 248.957 13.2434 245.671C16.9763 242.384 23.4954 242.005 26.3898 246.103C28.4591 249.011 27.9857 253.001 27.4447 256.572C26.7008 261.373 25.9705 266.175 25.2131 270.976C24.8546 272.402 24.9204 273.902 25.4024 275.291C26.7549 278.334 31.7051 277.752 33.5851 275.02C35.4651 272.288 35.2622 268.569 34.7618 265.268C34.2614 261.968 33.5851 258.425 34.8565 255.314C38.0349 247.591 49.3418 248.754 55.9015 243.737C59.959 240.612 61.7849 235.392 64.2059 230.82" fill="black"/>
</g>
<g opacity="0.2">
<path opacity="0.2" d="M402.767 302.611C402.767 299.663 402.659 296.728 402.51 293.82C402.361 290.912 402.131 288.018 401.834 285.123C401.617 282.797 401.36 280.498 401.049 278.185C400.738 275.872 400.386 273.329 399.981 270.935C398.799 263.76 397.232 256.654 395.287 249.647C394.53 246.942 393.746 244.318 392.893 241.694C392.041 239.07 391.149 236.446 390.189 233.863C389.174 231.916 388.092 230.008 386.915 228.129C375.744 210.1 359.5 195.952 347.219 178.708C343.162 173.095 340.092 168.456 332.991 167.347C322.482 165.697 317.167 171.797 309.714 161.639C307.713 158.934 304.21 156.391 301.248 158.014C302.018 160.178 302.816 162.356 303.574 164.561C303.772 165.011 303.86 165.503 303.831 165.994C303.669 167.509 301.45 167.928 300.166 167.09C299.025 166.041 298.078 164.8 297.366 163.424C296.504 162.281 295.409 161.332 294.155 160.64C292.901 159.948 291.514 159.529 290.087 159.411C288.659 159.292 287.223 159.476 285.871 159.951C284.52 160.426 283.284 161.181 282.245 162.167C282.158 161.144 281.803 160.162 281.217 159.319C280.63 158.476 279.833 157.803 278.904 157.365C278.767 158.335 278.424 159.264 277.899 160.09C277.374 160.917 276.678 161.622 275.859 162.158C275.04 162.695 274.115 163.05 273.148 163.201C272.18 163.351 271.192 163.294 270.248 163.032C269.639 161.058 273.115 160.706 274.306 158.975C275.496 157.244 274.089 155.188 272.656 153.849C268.819 150.464 263.92 148.526 258.806 148.371C255.587 148.371 252.124 148.926 249.338 147.235C247.715 146.261 246.633 144.638 244.916 143.705C241.372 141.663 236.949 143.543 233.392 145.544C228.523 148.249 223.492 151.779 221.774 157.189C220.056 162.599 223.871 169.876 229.416 169.186C230.768 168.997 232.27 168.321 233.649 168.699C235.61 169.254 236.503 171.594 236.665 173.663C236.828 175.732 236.665 177.91 237.585 179.736C238.505 181.562 241.44 182.441 242.562 180.737C245.173 178.207 244.848 173.974 244.185 170.363C243.522 166.752 242.833 162.708 244.916 159.759C246.998 156.811 253.098 157.744 252.679 161.382C252.422 163.519 250.042 165.075 250.136 167.252C250.231 169.43 252.841 170.62 255.032 170.525C257.223 170.43 259.401 169.646 261.497 170.201C263.594 170.755 265.311 173.541 263.783 175.124C261.146 178.18 254.315 172.96 252.895 176.747C252.721 177.774 252.689 178.821 252.801 179.857C252.557 183.036 248.635 184.213 245.511 184.591C242.386 184.97 239.086 185.281 236.259 183.915C233.433 182.549 231.485 178.762 233.108 176.03C231.512 174.867 229.051 176.03 228.226 177.856C227.557 179.75 227.439 181.795 227.887 183.753C224.574 183.009 221.612 185.863 219.772 188.676C217.933 191.489 216.053 194.843 212.834 195.844C209.615 196.845 205.125 195.492 203.448 198.549C201.243 202.431 207.613 207.368 205.382 211.222C204.11 213.4 201.054 213.332 198.619 214.008C192.222 215.861 190.004 225.396 194.359 230.482C198.714 235.567 207.438 235.283 212.063 230.482C215.269 227.141 216.58 222.434 218.907 218.417C221.233 214.401 225.669 210.789 230.011 212.088C231.712 212.736 233.259 213.731 234.555 215.009C236.692 216.822 238.829 218.634 240.953 220.419C242.305 221.582 243.82 223.043 243.658 224.869C243.522 226.316 242.413 227.452 241.94 228.818C240.587 232.741 246.173 236.473 249.676 234.337C253.179 232.2 253.558 226.708 251.164 223.341C247.864 218.674 240.344 216.335 240.574 210.559C244.388 207.381 250.407 210.722 252.638 215.226C254.87 219.729 254.924 225.031 256.804 229.657C258.684 234.282 263.932 238.448 268.327 236.176C267.178 232.118 266.069 228.169 264.919 224.179C267.719 222.042 270.938 228.237 274.278 227.236C276.321 226.587 276.564 223.598 275.631 221.582C274.698 219.567 273.169 217.89 272.791 215.712C272.155 211.763 276.483 208.22 280.405 208.869C284.328 209.518 287.168 213.319 287.844 217.241C287.986 218.825 288.331 220.384 288.872 221.88C290.333 224.991 294.12 225.937 297.244 227.29C300.368 228.642 303.641 231.794 302.33 234.972C301.721 236.325 300.301 237.677 300.801 239.124C301.302 240.572 303.128 240.937 303.128 242.303C303.128 243.209 302.167 243.818 301.342 244.183C299.246 245.062 296.947 245.346 294.918 246.347C292.889 247.348 291.036 249.336 291.185 251.608C291.442 254.854 295.242 256.409 297.014 259.101C298.786 261.792 298.475 265.066 299.557 267.987C300.585 270.692 302.681 272.788 304.372 275.088C309.647 282.418 310.891 291.845 313.474 300.542C314.624 304.464 316.72 308.846 320.67 309.59C322.864 309.771 325.066 309.335 327.026 308.332C332.734 306.019 338.644 303.558 342.634 298.865C346.624 294.171 347.977 286.449 343.865 281.81C343.398 281.166 342.709 280.718 341.931 280.552C340.853 280.615 339.816 280.986 338.942 281.62C336.034 282.973 332.477 281.85 330.056 279.673C327.795 277.327 326 274.573 324.768 271.558C323.212 268.352 321.657 265.106 320.061 261.86C321.941 260.237 324.93 260.913 326.823 262.509C328.717 264.105 329.907 266.404 331.463 268.352C336.21 274.384 344.014 277.035 351.547 277.941C353.487 278.047 355.399 278.453 357.214 279.145C362.854 281.769 364.477 290.236 370.428 292.048C372.078 292.576 373.931 292.467 375.487 293.225C377.84 294.347 379.017 297.079 379.72 299.636C381.073 304.41 381.478 309.428 383.453 313.972C385.428 318.517 389.363 322.628 394.205 322.696C395.734 322.657 397.24 322.312 398.633 321.683C400.027 321.053 401.281 320.152 402.321 319.031C402.577 314.554 402.726 310.077 402.726 305.506C402.821 304.491 402.821 303.544 402.767 302.611Z" fill="black"/>
</g>
<path d="M35.3564 400.641C34.8265 399.967 34.3729 399.237 34.0039 398.464C33.2059 396.989 31.9075 394.866 30.5415 391.985C26.5199 383.896 23.1066 375.519 20.33 366.923C10.9898 338.456 8.31526 308.223 12.5129 278.558C16.7106 248.893 27.6681 220.589 44.5399 195.831C49.5924 188.352 55.1936 181.259 61.2975 174.61C63.4074 172.216 65.2469 170.552 66.4235 169.335C66.9976 168.697 67.6419 168.125 68.3441 167.631C67.8885 168.36 67.3532 169.036 66.7481 169.646C65.6796 170.999 63.962 172.716 61.9467 175.178C56.1404 182.011 50.7694 189.203 45.8654 196.71C29.5178 221.45 18.8799 249.518 14.723 278.879C10.566 308.239 12.9941 338.157 21.8313 366.463C24.4526 375.036 27.6148 383.434 31.2989 391.606C32.5432 394.541 33.7199 396.719 34.3826 398.261C34.7948 399.015 35.1214 399.814 35.3564 400.641Z" fill="white"/>
<path d="M125.299 477.166C125.164 477.423 121.836 476.03 116.697 473.339C103.321 466.2 90.763 457.624 79.246 447.763C74.8638 443.948 72.3617 441.365 72.551 441.135C72.9838 440.635 83.9797 449.818 98.5327 459.719C113.086 469.619 125.61 476.585 125.299 477.166Z" fill="white"/>
<path d="M377.541 249.511C377.081 249.62 375.553 241.085 370.779 228.034C367.961 220.413 364.588 213.008 360.689 205.88C351.13 188.387 338.514 172.749 323.441 159.705C317.311 154.375 310.802 149.497 303.965 145.111C292.239 137.672 284.218 134.372 284.408 133.94C286.364 134.488 288.266 135.217 290.088 136.117C292.291 137.017 294.44 138.042 296.526 139.187C298.988 140.54 301.855 141.892 304.803 143.772C311.847 148.007 318.533 152.811 324.793 158.136C340.223 171.185 353.022 187.059 362.501 204.906C366.356 212.164 369.617 219.722 372.253 227.506C373.497 230.793 374.214 233.89 374.958 236.568C375.624 238.85 376.166 241.166 376.581 243.506C377.087 245.474 377.409 247.484 377.541 249.511Z" fill="white"/>
<g opacity="0.2">
<path opacity="0.2" d="M153.689 154.16C149.699 156.594 147.575 161.166 144.505 164.709C141.435 168.253 135.917 170.782 132.333 167.833C130.668 166.26 129.696 164.091 129.628 161.801C129.35 158.523 130.106 155.24 131.792 152.415C133.523 149.548 136.174 147.275 137.634 144.3C139.095 141.324 138.798 136.834 135.795 135.414C134.172 134.643 132.13 134.954 130.683 133.872C128.086 131.924 129.952 127.326 132.955 126.163C135.957 124.999 139.311 125.892 142.53 126.163C154.189 126.92 162.818 119.143 171.528 112.638C178.291 107.62 192.871 101.682 200.756 106.808C203.907 108.864 205.138 114.125 202.108 116.438C200.756 117.48 198.957 117.709 197.726 118.859C196.239 120.212 196.036 122.484 195.184 124.269C192.979 129.084 186.609 130.829 184.566 135.698C183.322 138.646 183.89 142.298 181.983 144.841C180.468 146.856 177.926 147.546 175.437 148.154L160.221 151.874C157.939 152.295 155.735 153.066 153.689 154.16Z" fill="black"/>
</g>
<g opacity="0.2">
<path opacity="0.2" d="M289.627 406.403C284.583 414.152 283.663 423.823 282.256 433.006C280.85 442.19 278.456 451.942 271.531 458.001C264.606 464.06 251.879 463.695 248.078 455.296C245.995 450.711 247.064 445.314 245.941 440.418C244.467 434.007 239.463 429.071 237.096 422.971C235.067 417.75 235.067 411.988 234.905 406.389C233.999 375.768 226.668 343.808 206.205 321.357C203.689 318.652 200.795 315.947 197.265 314.946C195.119 314.406 192.862 314.51 190.774 315.243C188.687 315.977 186.861 317.308 185.525 319.071C183.875 321.289 183.023 324.116 181.021 325.982C176.639 330.04 169.011 327.146 166.143 321.925C163.276 316.704 163.628 310.239 164.115 304.221C164.728 296.773 165.332 289.32 165.927 281.864C166.252 277.955 166.684 273.748 169.187 270.814C172.757 266.607 179.168 266.404 183.537 263.077C189.271 258.695 190.029 250.35 193.653 244.061C197.278 237.772 208.531 235.094 210.249 242.194C222.205 216.105 248.646 254.854 264.349 251.946C268.921 251.094 273.37 248.862 277.969 249.525C286.084 250.675 290.277 259.791 293.036 267.649L306.791 306.79C308.535 311.754 310.848 317.272 315.623 319.179C319.315 320.654 323.616 319.531 327.349 320.91C337.222 324.576 334.017 340.387 326.078 347.393C318.138 354.399 306.94 358.7 303.152 368.681C300.312 376.201 302.571 385.019 299.514 392.445C297.337 397.76 292.738 401.601 289.627 406.403Z" fill="black"/>
</g>
<g opacity="0.2">
<path opacity="0.2" d="M327.052 414.91C323.819 415.37 319.992 413.747 317.584 415.938C316.137 417.222 315.826 419.319 315.258 421.172C314.552 423.791 312.917 426.065 310.659 427.569C309.536 428.288 308.226 428.658 306.892 428.634C305.559 428.61 304.263 428.193 303.166 427.434C302.106 426.604 301.406 425.398 301.212 424.065C301.018 422.733 301.345 421.377 302.125 420.279C302.923 419.346 304.059 418.791 304.925 417.939C309.226 413.801 306.277 406.118 309.564 401.195C311.484 398.287 314.527 395.339 316.637 392.404C318.274 390.145 318.869 388.346 321.872 387.738C334.923 385.114 340.847 412.908 327.052 414.91Z" fill="black"/>
</g>
<path d="M333.003 204.257C333.652 199.577 327.052 195.722 322.088 195.33C319.721 195.141 317.259 195.506 315.028 194.722C310.172 193.031 308.265 186.755 303.491 184.754C299.947 183.266 295.876 184.591 292.441 186.322C289.005 188.054 285.611 190.218 281.77 190.475C278.442 190.678 274.818 189.447 271.896 191.07C269.719 192.287 268.583 194.789 266.581 196.277C264.489 197.562 262.07 198.214 259.615 198.157C257.174 198.1 254.743 198.499 252.447 199.334C250.229 200.348 248.39 202.688 248.863 205.082L333.003 204.257Z" fill="#FAFAFA"/>
<path d="M172.827 314.27C173.828 307.02 163.589 301.056 155.907 300.434C152.242 300.136 148.441 300.704 144.965 299.487C137.445 296.863 134.429 287.152 127.098 284.055C121.607 281.742 115.291 283.798 109.962 286.476C104.633 289.154 99.3855 292.535 93.5156 292.9C88.349 293.238 82.6955 291.318 78.2052 293.847C74.8375 295.727 73.0657 299.609 69.9684 301.962C66.8712 304.315 62.9624 304.667 59.1484 304.897C55.3343 305.127 51.4661 305.127 48.0307 306.709C44.5954 308.292 41.7551 311.903 42.4719 315.622L172.827 314.27Z" fill="#EBEBEB"/>
<path d="M181.875 75.4977C181.875 75.4977 180.78 75.119 178.738 74.6591C175.863 74.0326 172.901 73.9182 169.987 74.321C165.661 74.8947 161.579 76.6549 158.193 79.4064C154.049 82.7899 151.123 87.4347 149.861 92.634V92.7828L149.618 93.7295L149.266 92.8233C147.233 87.8937 143.753 83.6965 139.285 80.786C135.64 78.4162 131.45 77.0194 127.112 76.7285C124.189 76.5178 121.251 76.7874 118.416 77.5265C116.414 78.0539 115.345 78.5273 115.318 78.4597C115.564 78.325 115.817 78.2031 116.076 78.0945C116.815 77.7795 117.574 77.5129 118.348 77.2965C121.901 76.2511 125.637 75.9781 129.304 76.496C132.971 77.0139 136.485 78.3106 139.609 80.2991C144.2 83.2529 147.774 87.5441 149.848 92.5934H149.239V92.4446C150.531 87.1154 153.545 82.3613 157.814 78.9195C161.314 76.1153 165.532 74.3529 169.987 73.8341C172.948 73.4701 175.951 73.6535 178.846 74.3751C179.632 74.5679 180.404 74.8118 181.158 75.1055C181.411 75.2107 181.651 75.3422 181.875 75.4977Z" fill="#263238"/>
<path d="M257.739 25.3194C257.739 25.3194 257.116 25.1436 256.007 24.9137C254.427 24.5888 252.803 24.5385 251.206 24.7649C248.853 25.094 246.636 26.0624 244.795 27.5646C242.541 29.4105 240.95 31.9415 240.264 34.7734V34.8546L240.021 35.8013L239.655 34.8952C238.557 32.2118 236.671 29.9247 234.245 28.3355C232.264 27.0349 229.982 26.2621 227.618 26.0903C226.02 25.9696 224.414 26.102 222.857 26.4826C221.748 26.7531 221.153 26.9965 221.14 26.9424C221.263 26.8466 221.4 26.7692 221.545 26.7125C221.949 26.5303 222.365 26.3766 222.79 26.2526C224.752 25.6498 226.821 25.4804 228.855 25.7559C230.889 26.0315 232.839 26.7455 234.57 27.8486C237.115 29.4679 239.102 31.828 240.264 34.6111H239.655V34.53C240.361 31.5636 242.042 28.9201 244.43 27.0236C246.043 25.7363 247.935 24.8445 249.955 24.4194C251.975 23.9944 254.066 24.0478 256.061 24.5755C256.493 24.6809 256.914 24.8258 257.319 25.0083C257.603 25.2247 257.752 25.2924 257.739 25.3194Z" fill="#263238"/>
<path d="M192.884 0.649658C192.358 1.3132 191.798 1.94969 191.207 2.5567C189.698 4.28517 188.34 6.14047 187.149 8.10198C183.114 14.5947 180.999 22.0975 181.05 29.7421V30.0126H180.414C179.79 25.9166 178.454 21.9616 176.465 18.3269C174.854 15.3534 172.832 12.6216 170.46 10.2119C168.845 8.5833 167.084 7.1073 165.198 5.80272C164.481 5.36504 163.791 4.88635 163.129 4.36906C163.331 4.44653 163.525 4.54157 163.71 4.65309C164.076 4.86949 164.657 5.13999 165.334 5.59984C167.286 6.83553 169.099 8.27747 170.744 9.90082C173.191 12.2944 175.282 15.0273 176.952 18.0159C179.005 21.6989 180.38 25.7213 181.009 29.8909H180.387V29.6204C180.335 21.8759 182.544 14.2846 186.744 7.77738C188.003 5.84212 189.443 4.03066 191.045 2.36734C191.599 1.75872 192.086 1.33944 192.397 1.01484C192.548 0.878431 192.711 0.756189 192.884 0.649658Z" fill="#263238"/>
</svg>
