<svg width="481" height="314" viewBox="0 0 481 314" fill="none" xmlns="http://www.w3.org/2000/svg">
<path d="M81.3456 136.364C72.9601 140.72 66.468 148.185 61.9101 156.422C57.3521 164.659 54.309 173.694 51.347 182.661L48.7637 228.917C58.5288 212.321 66.3463 192.805 68.4697 173.68L61.9777 173.099C66.3328 172.436 69.9845 169.285 72.3109 165.538C74.4545 161.685 76.035 157.545 77.004 153.244L69.0784 154.42C75.3378 150.204 79.7314 143.737 81.3456 136.364Z" fill="#455A64"/>
<g opacity="0.3">
<path opacity="0.3" d="M81.3456 136.365C72.9601 140.72 66.468 148.185 61.9101 156.422C57.3521 164.659 54.309 173.694 51.347 182.661L48.7637 228.917C58.5288 212.321 66.3463 192.805 68.4697 173.68L61.9777 173.099C66.3328 172.436 69.9845 169.285 72.3109 165.538C74.4545 161.685 76.035 157.545 77.004 153.244L69.0784 154.421C75.3378 150.204 79.7314 143.737 81.3456 136.365Z" fill="black"/>
</g>
<path d="M47.3313 239.75C47.3313 239.75 26.151 214.418 26.3944 190.221H34.9558C34.9558 190.221 25.6641 184.108 26.3944 180.686C27.1248 177.264 27.3682 164.307 27.3682 164.307L35.1993 166.268C35.1993 166.268 29.3294 163.333 28.599 158.694C27.8687 154.055 30.3032 132.537 30.3032 132.537C30.3032 132.537 39.7707 142.559 42.7733 152.824C45.7759 163.09 53.404 175.06 51.1453 206.343C48.8866 237.627 47.3313 239.75 47.3313 239.75Z" fill="#455A64"/>
<path d="M58.057 242.144C58.057 242.144 81.0496 226.86 86.0945 207.357L79.2238 205.491C79.2238 205.491 88.0286 202.61 88.1909 199.702C88.3532 196.794 90.9771 186.326 90.9771 186.326L84.2145 186.177C84.2145 186.177 89.6245 185.109 91.1799 181.538C92.7353 177.967 95.5756 160.128 95.5756 160.128C95.5756 160.128 85.7158 166.092 81.1173 173.653C76.5187 181.213 67.7004 189.207 62.6826 214.85C57.6647 240.494 58.057 242.144 58.057 242.144Z" fill="#455A64"/>
<path d="M36.0908 154.637C36.2175 154.975 36.3126 155.323 36.3749 155.678C36.5507 156.422 36.7941 157.423 37.0782 158.681C37.6868 161.291 38.4307 165.078 39.3774 169.771C41.2033 179.171 43.3403 192.237 45.0309 206.749C46.7215 221.261 47.5872 234.476 47.9659 244.038C48.1552 248.826 48.2499 252.694 48.2634 255.372V258.455C48.2957 258.811 48.2957 259.169 48.2634 259.524C48.2088 259.17 48.1772 258.813 48.1687 258.455C48.1687 257.685 48.0876 256.657 48.0335 255.372C47.9388 252.667 47.7765 248.839 47.5195 244.065C47.0191 234.516 46.0588 221.329 44.3817 206.83C42.7046 192.331 40.6353 179.28 38.9717 169.866C38.1331 165.159 37.4163 161.359 36.8888 158.735C36.6589 157.464 36.4695 156.463 36.3208 155.705C36.2099 155.357 36.1329 155 36.0908 154.637Z" fill="#263238"/>
<path d="M44.3823 255.277C44.3823 255.277 25.0144 233.285 18.9957 220.004L23.5402 218.056C21.8766 218.237 20.1936 218.062 18.6031 217.542C17.0126 217.022 15.5511 216.169 14.3161 215.04C11.867 212.766 9.75801 210.151 8.05393 207.276L14.032 206.262C8.5397 204.692 3.86167 201.07 0.966797 196.145C8.02689 197.295 14.4107 201.177 19.672 206.032C23.8516 210.05 27.6504 214.447 31.0195 219.165C32.7094 221.433 34.1812 223.856 35.4152 226.401C38.6747 233.163 44.3958 247.203 44.3823 255.277Z" fill="#455A64"/>
<path d="M86.4053 172.936C86.3061 173.238 86.184 173.532 86.0401 173.815L84.8905 176.263C83.8625 178.373 82.4153 181.457 80.6436 185.271C77.1 192.899 72.4203 203.543 67.7947 215.5C63.1691 227.456 59.4768 238.492 56.9747 246.526C55.7168 250.584 54.7295 253.789 54.0532 255.994C53.7286 257.062 53.4581 257.928 53.2553 258.577C53.1824 258.886 53.0734 259.186 52.9307 259.47C52.9685 259.159 53.0319 258.851 53.12 258.55L53.7963 255.913C54.3778 253.64 55.2976 250.354 56.5013 246.323C58.8952 238.208 62.5199 227.185 67.1455 215.216C71.7711 203.246 76.5319 192.588 80.1431 185.055C81.969 181.268 83.4974 178.225 84.5929 176.142L85.8643 173.748C86.0131 173.458 86.1946 173.185 86.4053 172.936Z" fill="#263238"/>
<path d="M46.0334 264.704C45.8613 264.195 45.7478 263.669 45.6952 263.135C45.5194 262.121 45.2624 260.66 44.8837 258.875C43.9176 254.204 42.5927 249.614 40.9209 245.147C39.2279 240.693 37.1884 236.379 34.8211 232.244C33.9149 230.648 33.144 229.376 32.603 228.511C32.2948 228.091 32.0361 227.637 31.832 227.158C32.2152 227.531 32.5513 227.948 32.8329 228.403C33.455 229.228 34.2801 230.458 35.2539 232.027C40.291 240.238 43.724 249.33 45.3706 258.82C45.6682 260.633 45.8711 262.107 45.9522 263.135C46.0442 263.653 46.0714 264.18 46.0334 264.704Z" fill="#263238"/>
<path d="M71.608 259.524H29.1934V268.18H71.608V259.524Z" fill="#00B09C"/>
<path d="M33.2383 268.18L37.8233 297.272H63.4533L67.7273 268.18H33.2383Z" fill="#00B09C"/>
<path d="M68.9977 268.18C68.9977 268.369 60.9774 268.532 51.077 268.532C41.1766 268.532 33.1562 268.369 33.1562 268.18C33.1562 267.991 41.1902 267.828 51.077 267.828C60.9638 267.828 68.9977 267.977 68.9977 268.18Z" fill="#263238"/>
<path d="M112.603 276.579C115.944 275.808 119.974 271.439 121.34 268.288C122.706 265.137 123.423 261.688 125.06 258.658C127.237 254.601 130.943 251.585 132.702 247.392C133.842 244.039 134.333 240.5 134.149 236.964C130.547 238.739 127.13 240.868 123.951 243.321C120.754 245.788 118.37 249.156 117.107 252.991C116.296 255.696 116.282 258.631 115.444 261.35C114.605 264.068 113.158 266.246 112.238 268.789C111.318 271.331 111.048 274.361 112.603 276.579Z" fill="#455A64"/>
<path d="M112.603 276.444C115.308 271.466 110.939 267.869 109.438 266.083C107.769 264.448 106.286 262.634 105.015 260.673C103.352 257.454 103.825 253.465 102.31 250.178C101.496 248.665 100.38 247.335 99.0306 246.272C97.681 245.208 96.1271 244.434 94.4655 243.997C91.1358 243.145 87.7032 242.762 84.2676 242.861C85.6201 246.918 90.7731 248.271 93.3564 251.747C95.561 254.682 95.6287 258.739 97.414 261.945C100.876 268.139 109.898 269.898 112.63 276.457" fill="#455A64"/>
<path d="M117.404 255.602C118.918 251.165 120.379 246.134 118.391 241.928C117.524 240.605 116.884 239.147 116.497 237.613C116.295 235.747 117.404 234.029 118.066 232.203C118.808 230.202 119.02 228.044 118.681 225.937C118.342 223.83 117.464 221.847 116.132 220.179C115.835 223.033 113.508 225.17 111.371 227.064C109.235 228.957 106.962 231.216 106.881 234.07C106.8 236.653 108.558 239.047 108.437 241.63C108.315 244.214 106.516 246.121 105.38 248.325C103.297 252.383 104.149 259.145 106.638 262.959L114.036 271.981C112.183 267.734 115.875 260.038 117.404 255.602Z" fill="#455A64"/>
<path d="M132.457 239.493C132.267 240.019 132.045 240.534 131.795 241.035C131.073 242.392 130.212 243.671 129.225 244.849C128.008 246.35 126.398 248.014 124.694 249.921C122.786 251.922 121.268 254.261 120.217 256.819C119.257 259.591 119.162 262.459 118.405 264.934C117.787 267.123 117.015 269.265 116.092 271.345C115.481 272.753 114.757 274.11 113.928 275.402C113.631 275.872 113.306 276.324 112.954 276.755C113.02 276.626 113.096 276.504 113.184 276.389L113.833 275.334C114.612 274.027 115.308 272.672 115.916 271.277C116.811 269.196 117.557 267.053 118.148 264.866C118.892 262.432 118.973 259.578 119.96 256.751C121.016 254.156 122.558 251.787 124.504 249.772C126.222 247.865 127.845 246.228 129.076 244.741C130.071 243.588 130.945 242.338 131.686 241.008C131.97 240.548 132.119 240.156 132.254 239.899C132.39 239.642 132.444 239.479 132.457 239.493Z" fill="#263238"/>
<path d="M112.955 276.755C112.723 276.429 112.537 276.075 112.4 275.7C112.037 274.663 111.894 273.562 111.981 272.467C112.122 270.851 112.486 269.263 113.063 267.747C113.787 265.92 114.308 264.02 114.618 262.08C114.821 260.024 114.618 258.022 114.997 256.183C115.271 254.584 115.791 253.037 116.539 251.598C117.041 250.632 117.649 249.725 118.351 248.893C118.603 248.583 118.879 248.293 119.176 248.027C119.176 248.027 118.906 248.352 118.432 248.96C117.782 249.81 117.207 250.715 116.715 251.665C116.009 253.101 115.517 254.632 115.254 256.21C114.916 257.995 115.105 259.997 114.889 262.107C114.585 264.064 114.054 265.98 113.306 267.814C112.722 269.307 112.344 270.872 112.184 272.467C112.08 273.538 112.19 274.618 112.508 275.645C112.752 276.443 112.982 276.741 112.955 276.755Z" fill="#263238"/>
<path d="M112.374 269.951C112.139 269.879 111.916 269.775 111.711 269.64C111.126 269.323 110.577 268.942 110.074 268.504C108.422 267.037 107.123 265.216 106.274 263.175C105.439 261.149 104.835 259.035 104.475 256.873C104.326 256.048 104.218 255.371 104.15 254.912C104.104 254.671 104.077 254.426 104.069 254.181C104.157 254.413 104.22 254.653 104.259 254.898C104.38 255.52 104.529 256.156 104.664 256.832C105.09 258.964 105.715 261.052 106.531 263.067C107.365 265.069 108.614 266.872 110.196 268.355C110.884 268.938 111.612 269.471 112.374 269.951Z" fill="#263238"/>
<path d="M116.362 220.991C116.424 221.652 116.424 222.318 116.362 222.979C116.184 224.792 115.699 226.562 114.928 228.213C114.468 229.268 113.711 230.296 113.075 231.459C112.748 232.057 112.546 232.715 112.48 233.393C112.446 234.117 112.562 234.839 112.818 235.517C113.472 236.969 113.949 238.495 114.238 240.061C114.282 241.793 113.906 243.51 113.143 245.065C112.453 246.675 111.655 248.19 111.114 249.731C110.6 251.221 110.286 252.772 110.181 254.343C110.028 257.013 110.256 259.691 110.857 262.296C111.344 264.528 111.871 266.354 112.209 267.53L112.615 268.951C112.666 269.115 112.706 269.282 112.737 269.451C112.737 269.451 112.669 269.289 112.561 268.964L112.101 267.612C111.723 266.394 111.155 264.623 110.654 262.391C110.02 259.767 109.769 257.066 109.91 254.371C110.01 252.776 110.324 251.202 110.843 249.691C111.384 248.122 112.196 246.607 112.872 245.011C113.613 243.497 113.98 241.827 113.941 240.142C113.681 238.594 113.226 237.086 112.588 235.652C112.334 234.941 112.224 234.187 112.264 233.434C112.324 232.719 112.541 232.026 112.899 231.405C113.562 230.215 114.252 229.227 114.779 228.172C115.562 226.55 116.07 224.808 116.281 223.019C116.362 222.384 116.375 221.897 116.402 221.559C116.374 221.371 116.361 221.181 116.362 220.991Z" fill="#263238"/>
<path d="M112.224 275.091C112.093 274.538 111.921 273.996 111.71 273.468C111.057 272.05 110.139 270.769 109.005 269.695C107.653 268.342 105.678 266.99 103.704 265.218C101.46 263.386 99.9091 260.843 99.3078 258.009C98.9665 256.608 98.4768 255.248 97.8471 253.952C97.1953 252.763 96.3703 251.678 95.3991 250.733C93.7026 249.158 91.8489 247.762 89.8673 246.567C88.2037 245.498 86.8783 244.592 86.0127 243.862C85.5375 243.518 85.0856 243.143 84.6602 242.739C84.6602 242.739 84.7954 242.82 85.0253 243.01L86.0397 243.781C86.9188 244.43 88.2578 245.309 89.9349 246.364C91.9436 247.54 93.8208 248.927 95.5343 250.503C96.5412 251.458 97.3902 252.568 98.05 253.789C98.6982 255.119 99.1971 256.516 99.5378 257.955C100.118 260.74 101.636 263.242 103.839 265.042C105.786 266.773 107.734 268.139 109.114 269.587C110.272 270.675 111.193 271.992 111.819 273.455C112.03 273.978 112.167 274.529 112.224 275.091Z" fill="#263238"/>
<path d="M128.846 267.815H96.0342V274.51H128.846V267.815Z" fill="#00B09C"/>
<path d="M99.1582 274.496L102.715 297.015H122.543L125.843 274.496H99.1582Z" fill="#00B09C"/>
<path d="M126.831 274.496C122.219 274.862 117.592 274.983 112.968 274.861C108.343 274.983 103.716 274.862 99.1045 274.496C99.1045 274.307 105.313 274.144 112.968 274.144C120.623 274.144 126.831 274.307 126.831 274.496Z" fill="#263238"/>
<path d="M233.342 166.308L229.907 155.488C226.66 150.294 223.144 144.952 217.842 141.963C212.54 138.974 204.885 139.069 201.125 143.897C199.353 146.196 198.691 149.172 197.068 151.606C195.106 154.582 191.915 156.475 188.817 158.22C185.72 159.965 182.474 161.737 180.324 164.563C178.173 167.39 177.362 171.61 179.485 174.477C182.19 178.21 188.087 177.818 191.658 180.699C194.498 182.971 195.485 186.866 197.906 189.585C202.586 194.86 210.836 194.319 217.829 193.345C224.591 192.385 232.273 190.897 235.912 185.094C239.55 179.292 237.575 171.569 233.342 166.308Z" fill="#455A64"/>
<path d="M179.051 146.277L181.472 147.184L179.376 147.779C179.031 147.877 178.715 148.057 178.456 148.305C178.197 148.552 178.002 148.859 177.888 149.199L177.131 151.525L176.197 149.199C176.084 148.912 175.911 148.652 175.69 148.438C175.468 148.223 175.203 148.058 174.913 147.955L172.789 147.184L175.088 146.237C175.363 146.124 175.613 145.957 175.822 145.745C176.031 145.534 176.196 145.282 176.306 145.006L177.131 142.842L177.726 144.857C177.825 145.179 177.996 145.473 178.226 145.719C178.455 145.965 178.738 146.156 179.051 146.277Z" fill="white"/>
<path d="M169.259 164.55L170.815 165.145L169.462 165.524C169.238 165.58 169.032 165.693 168.864 165.852C168.696 166.01 168.571 166.209 168.502 166.43L168.015 167.931L167.42 166.43C167.349 166.244 167.239 166.077 167.096 165.939C166.953 165.801 166.782 165.696 166.595 165.632L165.242 165.145L166.716 164.536C166.894 164.463 167.056 164.355 167.191 164.218C167.325 164.081 167.431 163.918 167.501 163.738L168.028 162.386L168.407 163.738C168.483 163.927 168.598 164.096 168.745 164.236C168.892 164.376 169.067 164.483 169.259 164.55Z" fill="white"/>
<path d="M230.271 135.782L231.813 136.364L230.46 136.743C230.237 136.806 230.033 136.923 229.866 137.083C229.698 137.243 229.573 137.442 229.5 137.662L229.013 139.15L228.418 137.649C228.347 137.463 228.237 137.296 228.094 137.158C227.952 137.02 227.78 136.915 227.593 136.851L226.24 136.364L227.714 135.755C227.895 135.686 228.058 135.579 228.193 135.441C228.328 135.304 228.433 135.139 228.499 134.957L229.026 133.605L229.419 134.89C229.48 135.095 229.589 135.284 229.737 135.439C229.885 135.594 230.068 135.712 230.271 135.782Z" fill="white"/>
<path d="M218.098 130.818L218.869 131.102L218.193 131.292C218.083 131.326 217.984 131.385 217.901 131.465C217.819 131.545 217.757 131.643 217.72 131.752L217.476 132.496L217.179 131.752C217.14 131.659 217.083 131.575 217.011 131.505C216.939 131.435 216.853 131.381 216.759 131.346L216.083 131.102L216.827 130.805C216.914 130.766 216.993 130.711 217.058 130.641C217.123 130.571 217.173 130.489 217.206 130.399L217.476 129.709L217.665 130.359C217.699 130.463 217.755 130.558 217.83 130.638C217.904 130.717 217.996 130.779 218.098 130.818Z" fill="white"/>
<path d="M184.975 191.492L185.746 191.776L185.083 191.965C184.972 191.999 184.87 192.058 184.785 192.137C184.701 192.217 184.636 192.316 184.597 192.425L184.353 193.169L184.055 192.425C184.022 192.332 183.968 192.247 183.898 192.177C183.828 192.107 183.743 192.053 183.65 192.02L182.96 191.776L183.704 191.479C183.881 191.398 184.021 191.253 184.096 191.073L184.353 190.383L184.542 191.032C184.578 191.135 184.635 191.229 184.71 191.308C184.784 191.388 184.875 191.45 184.975 191.492Z" fill="white"/>
<path d="M272.023 0.531233C267.086 -0.456098 260.621 2.78991 256.442 5.5896C252.587 8.17289 251.032 12.1763 249.936 15.1924C249.936 15.1924 245.46 15.9904 245.554 21.7927C245.554 24.2678 248.422 26.026 248.624 28.4876C248.706 29.4208 247.732 30.9627 247.488 34.087C247.258 36.9678 247.772 39.8892 250.91 44.4742C252.547 46.8682 255.901 48.4506 257.443 50.8986C259.674 54.4557 262.555 58.0264 264.598 61.7187C266.464 65.1135 268.398 66.9123 272.253 67.291L283.438 6.18471C280.53 2.01898 276.959 1.45094 272.023 0.531233Z" fill="#263238"/>
<path d="M313.897 65.0865L310.069 84.9819L301.413 102.903L289.782 94.9093L285.981 84.0892L282.776 75.0409C282.776 75.0409 270.17 77.5837 265.639 65.7221C263.448 59.9875 259.891 47.8149 256.794 36.7649C255.197 31.0339 255.814 24.9116 258.522 19.6145C261.231 14.3174 265.833 10.233 271.415 8.17288L272.564 7.7536C285.237 3.89895 295.557 12.5144 299.073 25.3362L313.843 65.1" fill="#FFBE9D"/>
<path d="M264.083 46.3135C264.243 46.7615 264.571 47.1294 264.998 47.339C265.425 47.5487 265.917 47.5835 266.369 47.4361C266.592 47.3725 266.801 47.265 266.982 47.1199C267.163 46.9747 267.314 46.7948 267.424 46.5908C267.535 46.3867 267.604 46.1625 267.627 45.9315C267.65 45.7004 267.627 45.467 267.559 45.245C267.397 44.8027 267.069 44.4403 266.646 44.2336C266.222 44.0269 265.735 43.9919 265.287 44.1359C265.064 44.1982 264.855 44.3042 264.674 44.4478C264.492 44.5914 264.341 44.7698 264.228 44.9725C264.116 45.1752 264.046 45.3981 264.021 45.6283C263.996 45.8586 264.017 46.0915 264.083 46.3135Z" fill="#263238"/>
<path d="M261.27 41.2688C261.567 41.404 262.501 39.9839 264.34 39.3077C266.179 38.6314 267.857 39.0642 267.965 38.7666C268.073 38.4691 267.667 38.3068 266.923 38.0904C265.929 37.8406 264.882 37.8972 263.921 38.2527C262.967 38.6042 262.148 39.2479 261.581 40.0921C261.175 40.7278 261.135 41.2012 261.27 41.2688Z" fill="#263238"/>
<path d="M280.734 39.862C280.893 40.3065 281.22 40.6711 281.644 40.8783C282.069 41.0854 282.557 41.1187 283.006 40.9711C283.228 40.9074 283.435 40.8004 283.615 40.6562C283.795 40.5119 283.945 40.3334 284.056 40.1309C284.166 39.9283 284.236 39.7058 284.26 39.4763C284.284 39.2467 284.262 39.0147 284.196 38.7936C284.036 38.3491 283.71 37.9845 283.285 37.7773C282.861 37.5702 282.372 37.5369 281.924 37.6845C281.7 37.7449 281.491 37.8499 281.308 37.9934C281.126 38.1368 280.975 38.3157 280.864 38.5191C280.753 38.7226 280.684 38.9465 280.661 39.1773C280.639 39.4081 280.664 39.641 280.734 39.862Z" fill="#263238"/>
<path d="M279.341 34.0191C279.625 34.195 280.693 32.8695 282.6 32.4097C284.507 31.9498 286.13 32.5449 286.265 32.2609C286.401 31.9768 286.022 31.774 285.305 31.4764C284.344 31.1175 283.297 31.0609 282.303 31.3141C281.315 31.5577 280.43 32.1068 279.773 32.883C279.3 33.4781 279.205 33.938 279.341 34.0191Z" fill="#263238"/>
<path d="M278.177 51.5613C277.098 51.6189 276.03 51.8097 274.998 52.1293C274.525 52.2511 274.038 52.3187 273.849 52.0346C273.625 51.568 273.554 51.0427 273.646 50.5334C273.646 49.1809 273.646 47.8284 273.714 46.4759C273.714 40.6871 273.619 36.0074 273.389 36.0074C273.159 36.0074 272.929 40.6871 272.875 46.4759V50.5334C272.784 51.2047 272.938 51.8863 273.308 52.454C273.434 52.5951 273.592 52.7052 273.767 52.7755C273.943 52.8459 274.133 52.8747 274.322 52.8597C274.609 52.833 274.891 52.7693 275.161 52.6703C276.21 52.432 277.223 52.0592 278.177 51.5613Z" fill="#263238"/>
<path d="M284.033 50.8447C283.736 50.9394 284.466 52.9276 283.276 54.9699C282.086 57.0122 279.895 57.5667 279.989 57.8507C280.084 58.1348 280.598 58.0671 281.504 57.756C282.676 57.3522 283.665 56.5411 284.29 55.4703C284.9 54.4448 285.084 53.2216 284.804 52.062C284.574 51.1964 284.169 50.7906 284.033 50.8447Z" fill="#263238"/>
<path d="M277.338 27.9061C277.677 28.3659 279.489 27.6085 281.761 27.2569C284.033 26.9052 285.994 27.0269 286.17 26.4859C286.238 26.229 285.792 25.8367 284.94 25.5392C283.811 25.1879 282.615 25.1091 281.45 25.3093C280.279 25.4911 279.169 25.9553 278.218 26.6618C277.501 27.1757 277.203 27.6897 277.338 27.9061Z" fill="#263238"/>
<path d="M260.405 36.2779C260.878 36.5755 261.987 35.6693 263.488 35.0877C264.99 34.5061 266.396 34.3438 266.532 33.8028C266.532 33.5323 266.234 33.1942 265.531 33.0049C264.598 32.799 263.624 32.8888 262.744 33.2618C261.859 33.6031 261.102 34.2132 260.58 35.0065C260.202 35.6963 260.188 36.1291 260.405 36.2779Z" fill="#263238"/>
<path d="M282.248 5.56254C282.717 6.89426 282.888 8.31298 282.749 9.71814C282.609 11.1233 282.162 12.4805 281.439 13.6937C280.716 14.9068 279.736 15.9461 278.567 16.738C277.398 17.5299 276.069 18.055 274.674 18.2761C272.51 18.6142 269.927 18.3573 268.547 20.0614C267.167 21.7656 267.992 24.6464 266.856 26.6481C265.22 29.4884 260.838 28.8798 258.173 30.8004C256.117 32.2881 255.468 34.9796 254.576 37.36C253.683 39.7405 252.019 42.2831 249.49 42.4049C248.839 40.3121 248.426 38.1524 248.259 35.967C248.114 33.761 248.725 31.5713 249.991 29.7589C250.824 28.905 251.605 28.0017 252.33 27.0539C253.683 24.8493 253.21 22.0226 253.683 19.4663C253.977 17.8158 254.659 16.2587 255.672 14.9232C256.686 13.5876 258.002 12.5118 259.512 11.7841C262.028 10.6074 265.003 10.4316 267.316 8.93028C269.034 7.79417 270.251 5.99534 272.036 4.96743C275.499 2.96572 279.881 4.42642 283.492 6.14411" fill="#263238"/>
<path d="M300.318 34.3437C300.14 34.5479 299.93 34.7216 299.696 34.8577C295.638 37.4275 291.96 28.9202 292.095 26.0799C289.93 25.2938 287.871 24.2397 285.968 22.9421C283.568 20.6529 281.782 17.7973 280.774 14.6377C279.192 15.2869 271.564 15.4221 272.213 14.9623C273.714 13.8938 276.744 11.6351 277.136 9.87685C277.497 8.02133 278.341 6.29385 279.583 4.86896C280.825 3.44407 282.421 2.37224 284.21 1.7618C286.073 1.27735 288.043 1.41106 289.823 2.14281C291.604 2.87456 293.099 4.16478 294.083 5.81932C296.279 5.1381 298.618 5.06251 300.854 5.60052C303.089 6.13854 305.138 7.2702 306.783 8.87601C310.205 12.1626 310.611 17.1669 309.704 21.806C309.38 23.4219 309.38 25.0862 309.704 26.7021C310.191 28.1898 311.314 28.6767 312.031 30.0292C315.047 35.6557 313.897 47.6118 309.136 52.3456" fill="#263238"/>
<path d="M299.75 34.7904C299.926 34.6281 307.054 29.3803 309.799 37.5901C312.545 45.7998 303.686 46.8953 303.605 46.6519C303.524 46.4084 299.75 34.7904 299.75 34.7904Z" fill="#FFBE9D"/>
<path d="M305.078 42.7024C305.078 42.7024 305.254 42.7024 305.538 42.7835C305.928 42.8096 306.314 42.689 306.62 42.4454C307.036 41.9292 307.309 41.3123 307.411 40.657C307.513 40.0016 307.441 39.3309 307.201 38.7125C306.984 37.9973 306.615 37.3375 306.119 36.7784C305.953 36.5467 305.733 36.3583 305.479 36.2289C305.225 36.0995 304.944 36.0328 304.658 36.0345C304.481 36.0507 304.313 36.1262 304.183 36.2488C304.053 36.3714 303.968 36.5341 303.942 36.7108C303.942 36.9813 304.023 37.13 303.942 37.1571C303.861 37.1841 303.725 37.076 303.671 36.7243C303.654 36.5022 303.706 36.2802 303.82 36.0886C303.997 35.8462 304.257 35.6776 304.55 35.6152C304.911 35.5708 305.277 35.6196 305.613 35.7569C305.949 35.8943 306.245 36.1156 306.471 36.3997C307.066 36.9948 307.503 37.7294 307.742 38.5367C308.028 39.2558 308.093 40.0439 307.93 40.8002C307.766 41.5566 307.38 42.2471 306.823 42.7835C306.628 42.9191 306.406 43.0101 306.172 43.0498C305.938 43.0896 305.698 43.0772 305.47 43.0135C305.159 42.8917 305.051 42.7159 305.078 42.7024Z" fill="#EB996E"/>
<path d="M282.937 75.2167C288.48 73.2921 293.325 69.7609 296.854 65.0729C296.854 65.0729 296.34 75.0003 284.046 78.3139L282.937 75.2167Z" fill="#EB996E"/>
<path d="M272.293 249.853L273.483 280.081C273.483 280.081 243.16 291.429 242.835 297.042L301.52 296.839L301.601 249.677L272.293 249.853Z" fill="#00B09C"/>
<path d="M291.62 277.471C292.178 277.643 292.655 278.013 292.961 278.51C293.267 279.008 293.382 279.6 293.284 280.176C293.133 280.749 292.769 281.242 292.265 281.554C291.762 281.866 291.158 281.973 290.578 281.853C289.979 281.671 289.469 281.272 289.147 280.735C288.824 280.198 288.713 279.56 288.834 278.945C289.051 278.367 289.483 277.896 290.041 277.631C290.599 277.366 291.238 277.328 291.823 277.525" fill="#E0E0E0"/>
<g opacity="0.6">
<path opacity="0.6" d="M301.52 296.839L301.345 292.091L245.148 294.026C245.148 294.026 242.538 295.175 242.835 297.015L301.52 296.839Z" fill="white"/>
</g>
<path d="M272.523 279.784C272.523 280.068 273.97 280.189 275.39 281.136C276.81 282.083 277.554 283.26 277.811 283.138C278.068 283.016 277.649 281.366 275.918 280.298C274.186 279.229 272.469 279.513 272.523 279.784Z" fill="#263238"/>
<path d="M266.383 282.354C266.315 282.624 267.559 283.111 268.533 284.315C269.507 285.518 269.804 286.803 270.088 286.79C270.372 286.776 270.548 285.153 269.304 283.679C268.06 282.205 266.383 282.069 266.383 282.354Z" fill="#263238"/>
<path d="M262.906 289.725C263.177 289.792 263.569 288.372 262.825 286.79C262.081 285.207 260.742 284.599 260.62 284.842C260.499 285.085 261.337 285.91 261.973 287.209C262.608 288.507 262.622 289.698 262.906 289.725Z" fill="#263238"/>
<path d="M273.024 272.859C273.146 273.129 274.458 272.724 276.081 272.859C277.704 272.994 278.961 273.467 279.11 273.224C279.259 272.981 278.042 271.953 276.135 271.872C274.228 271.79 272.875 272.642 273.024 272.859Z" fill="#263238"/>
<path d="M430.888 289.373L460.792 284.896C460.792 284.896 475.399 313.799 480.999 313.515L474.398 255.195L427.507 260.213L430.888 289.373Z" fill="#00B09C"/>
<path d="M456.234 267.151C456.339 266.571 456.656 266.051 457.124 265.691C457.591 265.331 458.175 265.157 458.763 265.204C459.345 265.291 459.872 265.597 460.237 266.059C460.601 266.522 460.776 267.106 460.724 267.692C460.606 268.308 460.265 268.859 459.766 269.238C459.266 269.618 458.644 269.799 458.019 269.748C457.42 269.597 456.902 269.22 456.574 268.696C456.246 268.171 456.134 267.54 456.261 266.935" fill="#E0E0E0"/>
<g opacity="0.6">
<path opacity="0.6" d="M474.398 255.195L469.691 255.898L477.779 311.608C477.779 311.608 479.132 314.083 480.998 313.583L474.398 255.195Z" fill="white"/>
</g>
<path d="M460.602 285.911C460.886 285.911 460.859 284.423 461.617 282.922C462.374 281.42 463.483 280.528 463.348 280.284C463.213 280.041 461.603 280.649 460.724 282.489C459.845 284.328 460.359 285.911 460.602 285.911Z" fill="#263238"/>
<path d="M463.835 291.713C464.106 291.713 464.457 290.455 465.553 289.346C466.648 288.237 467.893 287.818 467.839 287.534C467.785 287.25 466.175 287.263 464.836 288.656C463.497 290.049 463.551 291.726 463.835 291.713Z" fill="#263238"/>
<path d="M471.545 294.35C471.545 294.08 470.111 293.85 468.623 294.756C467.136 295.662 466.689 297.069 466.933 297.164C467.176 297.258 467.92 296.339 469.151 295.608C470.382 294.878 471.545 294.634 471.545 294.35Z" fill="#263238"/>
<path d="M453.678 286.14C453.921 285.992 453.38 284.788 453.313 283.111C453.245 281.434 453.597 280.176 453.313 280.054C453.029 279.932 452.177 281.258 452.285 283.165C452.393 285.072 453.434 286.303 453.678 286.14Z" fill="#263238"/>
<path d="M291.269 75.4737C291.269 75.4737 295.204 63.22 302.589 62.2056C309.974 61.1912 318.738 61.5429 324.73 63.734C331.763 66.3037 353.416 87.4975 367.631 101.929C378.657 113.05 387.794 125.896 394.681 139.961C398.59 148.076 401.349 155.759 399.51 158.707L353.998 160.885L320.091 166.43C320.091 166.43 296.543 125.084 296.976 124.313C297.409 123.542 291.269 75.4737 291.269 75.4737Z" fill="#E0E0E0"/>
<path d="M338.742 200.337C338.742 200.337 339.824 276.849 342.529 283.206C345.234 289.562 348.467 294.35 359.611 296.582C370.756 298.814 454.287 292.863 454.287 292.863L450.229 255.357L390.719 249.947C390.719 249.947 390.462 233.122 390.841 225.318C391.22 217.514 399.93 202.921 401.039 185.473C402.148 168.026 338.742 200.337 338.742 200.337Z" fill="#263238"/>
<path d="M392.085 249.203C392.085 249.271 391.003 249.771 389.312 250.718C387.104 251.96 385.024 253.419 383.104 255.073C381.211 256.75 379.485 258.607 377.951 260.618C376.775 262.16 376.153 263.188 376.085 263.148C376.173 262.88 376.296 262.626 376.45 262.39C376.823 261.711 377.239 261.056 377.694 260.429C380.641 256.218 384.568 252.788 389.137 250.434C389.822 250.076 390.526 249.755 391.247 249.474C391.512 249.345 391.794 249.254 392.085 249.203Z" fill="#455A64"/>
<path d="M381.644 271.385C381.657 271.07 381.702 270.757 381.779 270.452C381.887 269.856 382.076 269.004 382.36 267.963C383.094 265.233 384.053 262.568 385.228 259.997C386.399 257.427 387.779 254.957 389.353 252.612C389.961 251.719 390.475 251.016 390.854 250.543C391.035 250.282 391.243 250.041 391.476 249.826C391.476 249.826 390.759 250.962 389.623 252.788C388.134 255.165 386.801 257.636 385.633 260.186C384.48 262.74 383.49 265.364 382.671 268.044C382.036 270.113 381.752 271.412 381.644 271.385Z" fill="#455A64"/>
<g opacity="0.3">
<path opacity="0.3" d="M339.135 216.581V216.905C345.547 221.849 353.513 224.342 361.6 223.938C370.184 223.229 378.281 219.657 384.593 213.795C370.27 217.825 353.877 217.649 339.135 216.581Z" fill="black"/>
</g>
<path d="M400.592 155.623C396.129 150.43 335.78 161.344 335.78 161.344C335.78 161.344 275.972 163.941 267.059 165.402C258.146 166.863 249.801 182.389 249.801 191.668C249.801 200.946 257.794 271.357 257.794 271.357L308.337 266.218C307.959 259.537 302.724 211.455 302.724 211.455C302.724 211.455 321.037 214.958 339.134 216.554C344.774 217.054 364.521 217.027 367.347 216.675C379.222 215.188 392.599 203.286 397.103 196.969C401.606 190.653 405.055 160.83 400.592 155.623Z" fill="#263238"/>
<path d="M284.371 194.332C284.727 194.359 285.08 194.418 285.426 194.508C285.833 194.593 286.235 194.702 286.63 194.833C287.166 194.985 287.695 195.165 288.212 195.374C289.557 195.901 290.855 196.538 292.094 197.281C293.603 198.218 295.02 199.296 296.327 200.5C297.615 201.736 298.78 203.095 299.803 204.557C300.631 205.729 301.351 206.974 301.954 208.277C302.195 208.773 302.407 209.284 302.589 209.805C302.746 210.194 302.882 210.591 302.995 210.995C303.116 211.332 303.197 211.681 303.239 212.037C303.144 212.037 302.738 210.589 301.656 208.412C301.024 207.136 300.286 205.914 299.452 204.76C297.424 201.91 294.849 199.491 291.878 197.646C290.669 196.889 289.403 196.229 288.09 195.671C285.859 194.738 284.371 194.427 284.371 194.332Z" fill="#455A64"/>
<path d="M285.345 202.136C285.605 202.128 285.865 202.16 286.116 202.231C286.809 202.358 287.495 202.52 288.172 202.718C290.415 203.351 292.586 204.217 294.65 205.301C296.72 206.383 298.673 207.675 300.479 209.156C301.156 209.724 301.697 210.211 302.048 210.508C302.4 210.806 302.589 211.063 302.562 211.09C302.535 211.117 301.683 210.414 300.277 209.345C296.601 206.56 292.487 204.407 288.104 202.975C286.4 202.474 285.331 202.204 285.345 202.136Z" fill="#455A64"/>
<path d="M385.512 213.876L385.296 213.944L384.687 214.092L382.307 214.593C381.279 214.809 380.008 215.066 378.52 215.283C377.032 215.499 375.355 215.837 373.489 216.04L370.54 216.405C369.512 216.527 368.444 216.595 367.348 216.703C365.13 216.933 362.763 217.041 360.261 217.176C355.27 217.366 349.779 217.379 344.031 217.109C334.21 216.565 324.429 215.459 314.736 213.795C311.003 213.159 307.973 212.605 305.931 212.172L303.564 211.685L302.942 211.55C302.806 211.55 302.725 211.55 302.739 211.55H302.955L303.577 211.631L305.971 212.037C308.041 212.415 311.057 212.916 314.776 213.511C324.473 215.093 334.248 216.154 344.058 216.689C349.806 216.96 355.284 216.96 360.288 216.797C362.777 216.662 365.144 216.581 367.348 216.365C368.457 216.27 369.526 216.202 370.54 216.094L373.489 215.756C375.355 215.567 377.046 215.283 378.52 215.08C379.994 214.877 381.225 214.647 382.32 214.458L384.714 214.038L385.336 213.944L385.512 213.876Z" fill="#455A64"/>
<path d="M366.523 130.115C366.325 130.444 366.093 130.753 365.833 131.035C365.373 131.616 364.683 132.387 363.804 133.415C362.059 135.403 359.53 138.054 356.568 140.8C353.606 143.546 350.752 145.831 348.629 147.414C347.574 148.212 346.708 148.766 346.086 149.253C345.782 149.488 345.456 149.691 345.112 149.862C345.379 149.58 345.674 149.327 345.991 149.104L348.426 147.157C350.495 145.507 353.295 143.18 356.257 140.394C359.219 137.608 361.762 135.052 363.574 133.131L365.711 130.846C365.951 130.57 366.224 130.325 366.523 130.115Z" fill="#263238"/>
<path d="M345.478 129.466C345.433 130.379 345.297 131.285 345.072 132.171C344.748 133.835 344.247 136.107 343.544 138.596C342.841 141.084 342.11 143.302 341.542 144.898C341.271 145.768 340.918 146.611 340.487 147.414C340.667 146.521 340.916 145.644 341.231 144.79C341.732 143.181 342.421 140.949 343.111 138.474C343.801 135.999 344.355 133.74 344.761 132.104C344.935 131.208 345.174 130.326 345.478 129.466Z" fill="#263238"/>
<path d="M338.593 150.497C338.353 150.73 338.091 150.939 337.809 151.119C337.085 151.65 336.331 152.137 335.55 152.58C333.056 154.042 330.389 155.187 327.611 155.988C324.896 156.769 322.09 157.192 319.266 157.246C318.197 157.246 317.318 157.246 316.723 157.165C316.409 157.149 316.096 157.104 315.79 157.03C316.104 156.982 316.423 156.982 316.737 157.03C317.332 157.03 318.197 157.03 319.266 157.03C322.062 156.887 324.834 156.433 327.53 155.677C330.275 154.874 332.928 153.782 335.442 152.418C336.416 151.89 337.2 151.43 337.741 151.065C337.999 150.839 338.285 150.648 338.593 150.497Z" fill="#263238"/>
<path d="M285.94 106.703C285.94 106.703 277.906 124.719 275.715 134.633L227.295 158.207L232.448 172.3C232.448 172.3 289.943 165.456 293.852 163.36C297.761 161.264 305.118 151.985 307.999 145.412C310.88 138.839 318.373 120.134 318.373 120.134L285.94 106.703Z" fill="#FFBE9D"/>
<path d="M288.429 136.769C288.429 136.769 287.767 136.391 286.685 135.85C285.273 135.179 283.768 134.723 282.221 134.497C280.675 134.256 279.101 134.256 277.555 134.497C276.365 134.7 275.648 134.93 275.621 134.862C276.2 134.522 276.838 134.293 277.501 134.186C279.071 133.824 280.695 133.759 282.289 133.997C283.888 134.234 285.429 134.766 286.833 135.566C287.436 135.864 287.977 136.273 288.429 136.769Z" fill="#EB996E"/>
<path d="M228.147 157.179C228.147 157.179 220.911 155.461 217.422 155.759C213.932 156.057 198.162 159.587 198.162 159.587C198.162 159.587 196.945 162.427 200.867 163.644C204.789 164.861 210.118 163.644 210.118 163.644C210.118 163.644 200.407 171.38 200.258 171.989C200.11 172.598 198.906 173.964 200.407 175.019C201.908 176.074 206.48 175.019 206.48 175.019C206.48 175.019 206.48 178.359 207.832 179.266C209.185 180.172 210.402 180.929 210.402 180.929C211.528 182.169 212.866 183.199 214.351 183.972C215.866 184.419 218.896 185.027 218.896 185.027H223.508L235.789 174.64L246.379 172.354L239.616 151.864L228.147 157.179Z" fill="white"/>
<path d="M213.933 172.76C212.853 173.493 211.654 174.033 210.389 174.356C209.167 174.826 207.871 175.073 206.562 175.086C207.767 174.634 208.995 174.246 210.24 173.923C211.447 173.462 212.68 173.073 213.933 172.76Z" fill="#263238"/>
<path d="M235.248 163.982C235.43 165.829 235.489 167.686 235.423 169.541C235.513 171.394 235.486 173.25 235.342 175.1C234.869 171.411 234.837 167.678 235.248 163.982Z" fill="#263238"/>
<path d="M233.599 154.65L240.091 173.707L244.5 172.76L236.98 153.081L233.599 154.65Z" fill="#E0E0E0"/>
<path d="M308.555 65.7087C308.555 65.7087 293.867 69.5633 290.972 76.0554C288.078 82.5474 279.057 114.426 279.057 114.426L318.374 128.303C318.374 128.303 323.432 105.675 325.61 97.0057C327.788 88.3361 334.564 71.7273 308.555 65.7087Z" fill="#E0E0E0"/>
<path d="M279.057 114.426H279.273L279.882 114.615L282.235 115.386L290.851 118.294L319.253 128.1L318.942 128.289L319.064 127.545C320.998 115.778 322.756 105.107 324.028 97.3571C324.677 93.516 325.204 90.4052 325.583 88.2141L326.029 85.7255L326.151 85.0898C326.151 84.941 326.151 84.8734 326.219 84.8734C326.286 84.8734 326.219 84.941 326.219 85.0898L326.137 85.739C326.043 86.3477 325.921 87.1862 325.772 88.2412C325.434 90.4458 324.947 93.5701 324.42 97.4112C323.175 105.175 321.471 115.832 319.591 127.626C319.591 127.87 319.497 128.127 319.47 128.357V128.627L319.213 128.532L290.81 118.605L282.235 115.548L279.922 114.696L279.327 114.466C279.124 114.466 279.057 114.439 279.057 114.426Z" fill="#263238"/>
<path d="M328.584 89.5536C328.62 89.8184 328.62 90.0868 328.584 90.3516C328.584 90.852 328.422 91.5688 328.26 92.4615C327.381 97.0916 325.87 101.579 323.769 105.797C323.364 106.609 323.012 107.244 322.755 107.677C322.498 108.11 322.336 108.353 322.309 108.326C322.644 107.403 323.032 106.5 323.472 105.621C324.216 103.985 325.162 101.699 326.042 99.1023C326.921 96.5055 327.543 94.098 327.935 92.3398C328.1 91.3998 328.317 90.4697 328.584 89.5536Z" fill="#263238"/>
</svg>
