<svg width="1440" height="434" viewBox="0 0 1440 434" fill="none" xmlns="http://www.w3.org/2000/svg">
<g clip-path="url(#clip0_975_2)">
<path fill-rule="evenodd" clip-rule="evenodd" d="M1747.56 213.509L1673.67 183.66C1599.78 153.81 1451.99 94.1113 1305.44 74.4895C1158.88 54.8676 1013.56 75.3228 868.484 103.793C723.408 132.264 578.578 168.75 432.271 157.144C285.963 145.537 138.179 85.8383 64.2867 55.9888L-9.60547 26.1394L3.68872 458.971L76.5962 456.759C149.503 454.547 295.318 450.123 441.133 445.698C586.948 441.274 732.763 436.849 878.578 432.425C1024.39 428.001 1170.21 423.576 1316.02 419.152C1461.84 414.728 1607.65 410.303 1680.56 408.091L1753.47 405.879L1747.56 213.509Z" fill="#00B09C" fill-opacity="0.75"/>
<path fill-rule="evenodd" clip-rule="evenodd" d="M-53.4991 144.362L11.1306 120.971C75.7603 97.5801 205.02 50.7978 331.703 38.9523C458.386 27.1069 582.492 50.1983 706.083 80.2771C829.675 110.356 952.75 147.422 1078.92 142.564C1205.09 137.706 1334.35 90.9235 1398.97 67.5323L1463.6 44.1412L1435.78 421.459L1373.21 416.901C1310.64 412.343 1185.5 403.226 1060.37 394.109C935.23 384.993 810.093 375.876 684.956 366.759C559.819 357.643 434.682 348.526 309.545 339.409C184.408 330.293 59.2708 321.176 -3.2977 316.618L-65.8662 312.059L-53.4991 144.362Z" fill="#00B09C" fill-opacity="0.45"/>
<path fill-rule="evenodd" clip-rule="evenodd" d="M-171.176 240.562L-102.478 211.162C-33.7802 181.763 103.616 122.965 239.355 104.345C375.095 85.7247 509.178 107.283 642.931 136.877C776.683 166.47 910.104 204.1 1045.51 193.515C1180.92 182.931 1318.32 124.132 1387.01 94.7333L1455.71 65.3341L1437.83 499.259L1370.45 496.516C1303.08 493.772 1168.33 488.285 1033.59 482.798C898.842 477.312 764.096 471.825 629.35 466.338C494.605 460.851 359.859 455.364 225.113 449.877C90.3667 444.391 -44.3793 438.904 -111.752 436.16L-179.125 433.417L-171.176 240.562Z" fill="#00B09C"/>
</g>
<defs>
<clipPath id="clip0_975_2">
<rect width="1440" height="434" fill="white"/>
</clipPath>
</defs>
</svg>
