<svg width="1440" height="435" viewBox="0 0 1440 435" fill="none" xmlns="http://www.w3.org/2000/svg">
<g clip-path="url(#clip0_506_6)">
<path fill-rule="evenodd" clip-rule="evenodd" d="M1747.56 213.894L1673.67 184.045C1599.78 154.195 1451.99 94.4961 1305.44 74.8743C1158.88 55.2524 1013.56 75.7076 868.484 104.178C723.408 132.649 578.578 169.135 432.271 157.529C285.963 145.922 138.179 86.2231 64.2867 56.3736L-9.60547 26.5242L3.68872 459.356L76.5962 457.144C149.503 454.932 295.318 450.508 441.133 446.083C586.948 441.659 732.763 437.234 878.578 432.81C1024.39 428.386 1170.21 423.961 1316.02 419.537C1461.84 415.113 1607.65 410.688 1680.56 408.476L1753.47 406.264L1747.56 213.894Z" fill="white" fill-opacity="0.75"/>
<path fill-rule="evenodd" clip-rule="evenodd" d="M-53.4991 144.747L11.1306 121.356C75.7603 97.9648 205.02 51.1825 331.703 39.337C458.386 27.4916 582.492 50.583 706.083 80.6618C829.675 110.741 952.75 147.807 1078.92 142.949C1205.09 138.091 1334.35 91.3082 1398.97 67.917L1463.6 44.5259L1435.78 421.844L1373.21 417.286C1310.64 412.728 1185.5 403.611 1060.37 394.494C935.23 385.378 810.093 376.261 684.956 367.144C559.819 358.028 434.682 348.911 309.545 339.794C184.408 330.678 59.2708 321.561 -3.2977 317.003L-65.8662 312.444L-53.4991 144.747Z" fill="white" fill-opacity="0.45"/>
<path fill-rule="evenodd" clip-rule="evenodd" d="M-171.176 240.947L-102.478 211.547C-33.7802 182.148 103.616 123.35 239.355 104.73C375.095 86.1094 509.178 107.668 642.931 137.262C776.683 166.855 910.104 204.485 1045.51 193.9C1180.92 183.316 1318.32 124.517 1387.01 95.118L1455.71 65.7188L1437.83 499.644L1370.45 496.901C1303.08 494.157 1168.33 488.67 1033.59 483.183C898.842 477.697 764.096 472.21 629.35 466.723C494.605 461.236 359.859 455.749 225.113 450.262C90.3667 444.776 -44.3793 439.289 -111.752 436.545L-179.125 433.802L-171.176 240.947Z" fill="white"/>
</g>
<defs>
<clipPath id="clip0_506_6">
<rect width="1440" height="434" fill="white" transform="translate(0 0.384766)"/>
</clipPath>
</defs>
</svg>
